<?xml version="1.0" encoding="utf-8"?>
<!-- Generator: Adobe Illustrator 23.0.2, SVG Export Plug-In . SVG Version: 6.00 Build 0)  -->
<svg version="1.1" id="Layer_1" xmlns="http://www.w3.org/2000/svg" xmlns:xlink="http://www.w3.org/1999/xlink" x="0px" y="0px"
	 viewBox="0 0 977.7 867.9" style="enable-background:new 0 0 977.7 867.9;" xml:space="preserve">
<style type="text/css">
	.st0{fill:#5373B3;}
	.st1{fill:#2B646C;}
	.st2{opacity:0.5;fill:#1D4E42;enable-background:new    ;}
	.st3{fill:#FFFFFF;}
	.st4{fill:#1D4E42;}
	.st5{opacity:0.5;fill:#2B646C;enable-background:new    ;}
	.st6{opacity:0.5;fill:#415487;enable-background:new    ;}
	.st7{fill:#C1D1CC;}
	.st8{fill:#435E54;}
	.st9{fill:#FFAC98;}
	.st10{fill:url(#SVGID_1_);}
	.st11{fill:url(#SVGID_2_);}
	.st12{fill:url(#SVGID_3_);}
	.st13{fill:url(#SVGID_4_);}
	.st14{fill:url(#SVGID_5_);}
	.st15{fill:url(#SVGID_6_);}
	.st16{fill:url(#SVGID_7_);}
	.st17{fill:#C0D8FF;}
	.st18{fill:url(#SVGID_8_);}
	.st19{fill:url(#SVGID_9_);}
	.st20{opacity:0.6;}
	.st21{fill:url(#SVGID_10_);}
	.st22{fill:url(#SVGID_11_);}
	.st23{fill:url(#SVGID_12_);}
	.st24{fill:#BC7562;}
	.st25{opacity:0.1;}
	.st26{fill:#F9AFA5;}
	.st27{fill:#65937E;}
	.st28{fill:#507065;}
	.st29{fill:#567766;}
	.st30{fill:#263531;}
	.st31{fill:url(#SVGID_13_);}
	.st32{fill:#599980;}
	.st33{fill:#3A6856;}
	.st34{fill:#327F7F;}
	.st35{opacity:0.3;fill:#417684;enable-background:new    ;}
	.st36{fill:#F8FDFF;}
	.st37{fill:#1D877C;}
	.st38{fill:#F7F7F7;}
	.st39{opacity:0.5;fill:#417684;enable-background:new    ;}
	.st40{fill:#415487;}
	.st41{fill:#338E8C;}
	.st42{fill:#EFA49A;}
	.st43{fill:url(#SVGID_14_);}
	.st44{fill:url(#SVGID_15_);}
	.st45{fill:url(#SVGID_16_);}
	.st46{fill:url(#SVGID_17_);}
	.st47{fill:url(#SVGID_18_);}
	.st48{fill:url(#SVGID_19_);}
	.st49{fill:#199B9C;}
	.st50{fill:url(#SVGID_20_);}
	.st51{fill:url(#SVGID_21_);}
	.st52{fill:url(#SVGID_22_);}
	.st53{fill:#D38981;}
	.st54{opacity:0.5;}
	.st55{fill:#4DA1A3;}
	.st56{fill:#2E7C78;}
	.st57{fill:#529E98;}
	.st58{fill:#256B66;}
	.st59{fill:#388C8C;}
	.st60{fill:#1C8889;}
	.st61{fill:#2E757A;}
	.st62{fill:#3F8E82;}
	.st63{fill:#54ABB2;}
	.st64{fill:#FDFFFF;}
	.st65{font-family:'ArialMT';}
	.st66{font-size:17.507px;}
	.st67{font-size:17.3282px;}
</style>
<g id="BACKGROUND">
	<rect x="-1311.7" y="-1574.4" class="st0" width="465" height="465"/>
	
		<text transform="matrix(1 0 0 1 -1245.2434 -1469.6614)" style="font-family:'NexaBold'; font-size:11.1604px; letter-spacing:30;"> </text>
	<text transform="matrix(1 0 0 1 -1211.7629 -1469.6614)" style="font-family:'NexaBold'; font-size:11.1604px;">rE</text>
</g>
<g>
	<g>
		<g>
			<path class="st1" d="M-2104.3-2374.6h-175.9c-10,0-17.9-8.1-17.9-17.9l0,0c0-10,8.1-17.9,17.9-17.9h175.9
				c10,0,17.9,8.1,17.9,17.9l0,0C-2086.3-2382.7-2094.3-2374.6-2104.3-2374.6z"/>
			<path class="st1" d="M-2174.2-2480.6v175.9c0,10-8.1,17.9-17.9,17.9l0,0c-10,0-17.9-8.1-17.9-17.9v-175.9
				c0-10,8.1-17.9,17.9-17.9l0,0C-2182.3-2498.6-2174.2-2490.5-2174.2-2480.6z"/>
		</g>
		<g>
			<path class="st1" d="M-1098.2,842.5h-175.9c-10,0-17.9-8.1-17.9-17.9l0,0c0-10,8.1-17.9,17.9-17.9h175.9c10,0,17.9,8.1,17.9,17.9
				l0,0C-1080.2,834.5-1088.3,842.5-1098.2,842.5z"/>
			<path class="st1" d="M-1168.2,736.6v175.9c0,10-8.1,17.9-17.9,17.9l0,0c-10,0-17.9-8.1-17.9-17.9V736.6c0-10,8.1-17.9,17.9-17.9
				l0,0C-1176.3,718.7-1168.2,726.7-1168.2,736.6z"/>
		</g>
		<g>
			<path class="st1" d="M-5295-4419.9h-175.9c-10,0-17.9-8.1-17.9-17.9l0,0c0-10,8.1-17.9,17.9-17.9h175.9c10,0,17.9,8.1,17.9,17.9
				l0,0C-5277.1-4427.9-5285.2-4419.9-5295-4419.9z"/>
			<path class="st1" d="M-5365-4525.9v175.9c0,10-8.1,17.9-17.9,17.9l0,0c-10,0-17.9-8.1-17.9-17.9v-175.9c0-10,8.1-17.9,17.9-17.9
				l0,0C-5373-4543.8-5365-4535.8-5365-4525.9z"/>
		</g>
		<g>
			<path class="st1" d="M-8047.2,319.9H-8223c-10,0-17.9-8.1-17.9-17.9l0,0c0-10,8.1-17.9,17.9-17.9h175.9c10,0,17.9,8.1,17.9,17.9
				l0,0C-8029.1,311.8-8037.2,319.9-8047.2,319.9z"/>
			<path class="st1" d="M-8117.1,213.9v175.9c0,10-8.1,17.9-17.9,17.9l0,0c-10,0-17.9-8.1-17.9-17.9V213.9c0-10,8.1-17.9,17.9-17.9
				l0,0C-8125.1,195.9-8117.1,204-8117.1,213.9z"/>
		</g>
		<g>
			<path class="st1" d="M-4466.5-454h-175.9c-10,0-17.9-8.1-17.9-17.9l0,0c0-10,8.1-17.9,17.9-17.9h175.9c10,0,17.9,8.1,17.9,17.9
				l0,0C-4448.6-462-4456.6-454-4466.5-454z"/>
			<path class="st1" d="M-4536.5-559.9v175.9c0,10-8.1,17.9-17.9,17.9l0,0c-10,0-17.9-8.1-17.9-17.9v-175.9c0-10,8.1-17.9,17.9-17.9
				l0,0C-4544.6-577.9-4536.5-569.9-4536.5-559.9z"/>
		</g>
		<path class="st1" d="M-1464.6-1958.2h-286.6c-10,0-17.9-8.1-17.9-17.9l0,0c0-10,8.1-17.9,17.9-17.9h286.6c10,0,17.9,8.1,17.9,17.9
			l0,0C-1446.5-1966.2-1454.6-1958.2-1464.6-1958.2z"/>
		<path class="st1" d="M-1136.6-1888.5c0,10-8,17.9-17.9,17.9h-464.6c-10,0-18.1-8-18.1-17.9s8.2-17.9,18.1-17.9h464.6
			C-1144.6-1906.5-1136.6-1898.5-1136.6-1888.5z"/>
		<path class="st1" d="M-7616.4,930.5c0,10-8,17.9-17.9,17.9H-8099c-10,0-18.1-8-18.1-17.9c0-10,8.2-17.9,18.1-17.9h464.6
			C-7624.4,912.6-7616.4,920.6-7616.4,930.5z"/>
		<path class="st1" d="M-6145.2-3743.2h-286.6c-10,0-17.9-8.1-17.9-17.9l0,0c0-10,8.1-17.9,17.9-17.9h286.6c10,0,17.9,8.1,17.9,17.9
			l0,0C-6127.3-3751.3-6135.3-3743.2-6145.2-3743.2z"/>
		<path class="st1" d="M-5558.5-3838.5c0,10-8.2,17.9-18.1,17.9h-447.9c-9.8,0-17.9-8-17.9-17.9c0-10,8.2-17.9,17.9-17.9h447.9
			C-5566.7-3856.4-5558.5-3848.4-5558.5-3838.5z"/>
		<path class="st1" d="M-5817.2-3673.6c0,10-8,17.9-17.9,17.9h-464.6c-10,0-18.1-8-18.1-17.9s8.2-17.9,18.1-17.9h464.6
			C-5825.3-3691.6-5817.2-3683.5-5817.2-3673.6z"/>
		<path class="st1" d="M-3690.5-4370.1h-286.6c-10,0-17.9-8.1-17.9-17.9l0,0c0-10,8.1-17.9,17.9-17.9h286.6c10,0,17.9,8.1,17.9,17.9
			l0,0C-3672.6-4378.2-3680.7-4370.1-3690.5-4370.1z"/>
		<path class="st1" d="M-7482.6,1047.2h-286.6c-10,0-17.9-8.1-17.9-17.9l0,0c0-10,8.1-17.9,17.9-17.9h286.6c10,0,17.9,8.1,17.9,17.9
			l0,0C-7464.7,1039.2-7472.7,1047.2-7482.6,1047.2z"/>
		<path class="st1" d="M-3933.1-4479.5c0,10-8,17.9-17.9,17.9h-464.6c-10,0-18.1-8-18.1-17.9c0-10,8.2-17.9,18.1-17.9h464.6
			C-3941.2-4497.5-3933.1-4489.4-3933.1-4479.5z"/>
		<path class="st1" d="M-3936.8-4307.1c0,10-8,17.9-17.9,17.9h-764c-10,0-18.1-8-18.1-17.9c0-10,8.2-17.9,18.1-17.9h764
			C-3944.8-4325.1-3936.8-4317.1-3936.8-4307.1z"/>
	</g>
	<rect x="-7408.3" y="-3172.1" class="st2" width="3121.7" height="2205.7"/>
	<rect x="-7656" y="-3414.9" class="st3" width="3121.7" height="2205.7"/>
	<rect x="-7656" y="-3414.9" class="st4" width="3121.7" height="229.8"/>
	<g>
		<rect x="-7386.1" y="-2261.3" class="st4" width="947.6" height="40.3"/>
		<rect x="-7386.1" y="-2184.1" class="st4" width="858.5" height="40.3"/>
		<rect x="-7386.1" y="-2106.8" class="st4" width="543.3" height="40.3"/>
		<rect x="-7386.1" y="-2029.4" class="st4" width="888.1" height="40.3"/>
		<rect x="-7386.1" y="-1952.1" class="st4" width="947.6" height="40.3"/>
		<rect x="-6131" y="-2964.1" class="st4" width="1171.7" height="40.3"/>
		<rect x="-6131" y="-2886.8" class="st4" width="1326.7" height="40.3"/>
		<rect x="-6131" y="-2809.4" class="st4" width="1286.6" height="40.3"/>
		<rect x="-6131" y="-2732.1" class="st4" width="1243.4" height="40.3"/>
		<rect x="-6131" y="-2654.8" class="st4" width="1326.7" height="40.3"/>
		<rect x="-7386.1" y="-1797.5" class="st4" width="684.4" height="43.2"/>
		<rect x="-7386.1" y="-1720.2" class="st4" width="947.6" height="40.3"/>
		<rect x="-7386.1" y="-1642.9" class="st4" width="533.4" height="40.3"/>
		<rect x="-7386.1" y="-1565.6" class="st4" width="947.6" height="40.3"/>
		<rect x="-7386.1" y="-1488.2" class="st4" width="837.4" height="40.3"/>
		<rect x="-6131" y="-2493.3" class="st4" width="1326.7" height="43.1"/>
		<rect x="-6131" y="-2416" class="st4" width="1031.1" height="43.1"/>
		<rect x="-6131" y="-2338.6" class="st4" width="1181.2" height="40.3"/>
		<rect x="-6131" y="-2261.3" class="st4" width="876.6" height="40.3"/>
		<rect x="-6131" y="-2184.1" class="st4" width="1172.3" height="40.3"/>
		<g>
			<path class="st4" d="M-5514.7-1446.4h-615.9v-615.9h615.9V-1446.4z M-6105.8-1471.2h566.3v-566.3h-566.3V-1471.2L-6105.8-1471.2z
				"/>
			<g>
				
					<rect x="-5835" y="-2172.4" transform="matrix(0.7071 -0.7071 0.7071 0.7071 -464.8359 -4631.1084)" class="st4" width="24.7" height="835.9"/>
				
					<rect x="-6240.7" y="-1766.7" transform="matrix(0.7071 -0.7071 0.7071 0.7071 -464.9374 -4631.123)" class="st4" width="835.9" height="24.7"/>
			</g>
		</g>
		<g>
			<path class="st4" d="M-4791.9-1446.4h-615.9v-615.9h615.9V-1446.4z M-5383-1471.2h566.3v-566.3H-5383V-1471.2z"/>
			<g>
				
					<rect x="-5112.3" y="-2172.3" transform="matrix(0.7071 -0.7071 0.7071 0.7071 -253.1887 -4120.0376)" class="st4" width="24.7" height="835.9"/>
				
					<rect x="-5517.9" y="-1766.7" transform="matrix(0.7071 -0.7071 0.7071 0.7071 -253.2209 -4120.022)" class="st4" width="835.9" height="24.7"/>
			</g>
		</g>
		<g>
			<path class="st4" d="M-6426-2360.6h-972.4v-615.9h972.3L-6426-2360.6L-6426-2360.6z M-7373.6-2385.3h922.9v-566.4h-922.9V-2385.3
				L-7373.6-2385.3z"/>
			
				<rect x="-6924.4" y="-3227" transform="matrix(0.5293 -0.8485 0.8485 0.5293 -989.6128 -7120.6816)" class="st4" width="24.7" height="1116.9"/>
			
				<rect x="-7470.7" y="-2680.8" transform="matrix(0.8485 -0.5292 0.5292 0.8485 364.9052 -4062.2517)" class="st4" width="1116.9" height="24.7"/>
		</g>
	</g>
	<rect x="-7806.7" y="-4194.8" class="st2" width="1222.6" height="779.9"/>
	<rect x="-7943.6" y="-4331.7" class="st3" width="1222.6" height="779.9"/>
	<rect x="-7943.6" y="-4331.7" class="st4" width="1222.6" height="147.6"/>
	<rect x="-8010.4" y="-4331.8" class="st2" width="221" height="221"/>
	<rect x="-8069" y="-4390.3" class="st3" width="221" height="221"/>
	<g>
		
			<rect x="-8047.7" y="-4288.6" transform="matrix(0.7072 -0.7071 0.7071 0.7072 695.5207 -6880.3843)" class="st4" width="178.6" height="17.6"/>
		
			<rect x="-7967.3" y="-4369.1" transform="matrix(0.7071 -0.7071 0.7071 0.7071 695.2948 -6881.0371)" class="st4" width="17.6" height="178.6"/>
	</g>
	<rect x="-3273" y="-4573.5" class="st5" width="1222.6" height="779.9"/>
	<rect x="-3409.9" y="-4710.4" class="st3" width="1222.6" height="779.9"/>
	<rect x="-3409.9" y="-4710.4" class="st1" width="1222.6" height="147.6"/>
	<rect x="-3476.8" y="-4710.4" class="st6" width="221" height="221"/>
	<rect x="-3535.3" y="-4769" class="st3" width="221" height="221"/>
	<g>
		
			<rect x="-3514.1" y="-4667.2" transform="matrix(0.7071 -0.7071 0.7071 0.7071 2290.8809 -3786.1475)" class="st1" width="178.6" height="17.6"/>
		
			<rect x="-3433.8" y="-4747.8" transform="matrix(0.7071 -0.7071 0.7071 0.7071 2290.9182 -3786.311)" class="st1" width="17.6" height="178.6"/>
	</g>
	<rect x="-2448.2" y="-3596.7" class="st5" width="1459.6" height="931.1"/>
	<rect x="-2611.7" y="-3760.2" class="st3" width="1459.6" height="931.1"/>
	<rect x="-2611.7" y="-3760.2" class="st1" width="1459.6" height="176.1"/>
	<rect x="-2691.5" y="-3760.2" class="st6" width="263.9" height="263.9"/>
	<rect x="-2761.3" y="-3830" class="st3" width="263.9" height="263.9"/>
	<g>
		
			<rect x="-2736.1" y="-3708.6" transform="matrix(0.7071 -0.7071 0.7071 0.7071 1844.7684 -2942.4817)" class="st1" width="213.2" height="21"/>
		
			<rect x="-2640.1" y="-3804.8" transform="matrix(0.7071 -0.7071 0.7071 0.7071 1844.855 -2942.6086)" class="st1" width="21" height="213.2"/>
	</g>
	<g>
		<path class="st1" d="M-2105.3-3008.3l-213.9-181c-11.2-9.5-11.2-26.8,0-36.2l213.9-181c8.8-7.5,22.1-6.4,29.7,2.5l0,0
			c7.5,8.8,6.4,22.1-2.5,29.7l-176,148.9c-11.2,9.5-11.2,26.8,0,36.2l176,148.9c8.8,7.5,10,20.7,2.5,29.7l0,0
			C-2083.1-3001.9-2096.4-3000.9-2105.3-3008.3z"/>
		<path class="st1" d="M-1688.3-3010.9L-1688.3-3010.9c-7.5-8.8-6.4-22.1,2.5-29.7l176-148.9c11.2-9.5,11.2-26.8,0-36.2l-176-148.9
			c-8.8-7.5-10-20.7-2.5-29.6l0,0c7.5-8.8,20.7-10,29.7-2.5l213.9,181c11.2,9.5,11.2,26.8,0,36.2l-213.9,181
			C-1667.5-3000.8-1680.7-3001.9-1688.3-3010.9z"/>
		<path class="st1" d="M-2010.1-2913.8L-2010.1-2913.8c-10.8-4.3-16-16.6-11.7-27.3l224-560.3c4.3-10.8,16.6-16,27.3-11.7l0,0
			c10.8,4.3,16,16.6,11.7,27.3l-224,560.3C-1987.1-2914.7-1999.3-2909.4-2010.1-2913.8z"/>
	</g>
	<path class="st7" d="M-3212.9-1640.4c194-250.2,1630.3-171.4,1952,160.7s-499.7,1712.9-487.8,2905.3
		c2,195.6-1665.9,162.3-1823.7-20C-3820.8,1118.6-3857.5-809.3-3212.9-1640.4z"/>
	<path class="st8" d="M-5444.9,1097.7c5.5,166.8-1065.8,218.3-1140.3,90.9C-6659.7,1061.1-6476.7,886-6330,829
		C-6086.9,734.6-5452.4,870.7-5444.9,1097.7z"/>
	<g>
		<path class="st9" d="M-5914.8,699.7c-62.7-16.6-228.2-39.1-265.5-33c-69.8,11.3-204.9,104-179.2,144.8
			c25.7,40.8,151.6-27.2,192.6-24.7c41,2.4,235.3,35.4,235.3,35.4L-5914.8,699.7z"/>
		<path class="st9" d="M-4482.2,420.4c84.9-20.6,322.6-621.6,495.5-837.7c172.9-216,506.8-129.7,515.1,124.3
			c14.4,441.6-494,1142-593.7,1203.9c-143.4,89.1-1254.8,245.6-1357,229.4s-294.4-272-179.9-358
			C-5487.8,696.5-4612,452-4482.2,420.4z"/>
		<path class="st9" d="M-5468.2,734.2c-89.2,26.2-413.5-74.9-496.1-55.9c-82.6,19-282.5,112.7-289.1,163.7
			c-6.4,51,255.1-22.5,297.8-19.9c42.7,2.7,288.1,118.5,300.5,187.1c12.4,68.6-192,152.4-224.3,218.5c-32.4,66,59.1,67.1,117.3,47
			c58.2-20.2,201.8-97.9,240.4-99.2c38.5-1.3,183.6-30.2,183.6-30.2L-5468.2,734.2z"/>
	</g>
	
		<linearGradient id="SVGID_1_" gradientUnits="userSpaceOnUse" x1="-5340.5034" y1="-4535.7905" x2="-3335.4087" y2="-3350.4934" gradientTransform="matrix(0.93 0 0 -0.93 -440.8546 -3167.7439)">
		<stop  offset="0" style="stop-color:#FFAC98"/>
		<stop  offset="1" style="stop-color:#C28172"/>
	</linearGradient>
	<path class="st10" d="M-4482.2,420.4c84.9-20.6,322.6-621.6,495.5-837.7c172.9-216,506.8-129.7,515.1,124.3
		c14.4,441.6-494,1142-593.7,1203.9c-143.4,89.1-1254.8,245.6-1357,229.4s-294.4-272-179.9-358C-5487.8,696.5-4612,452-4482.2,420.4
		z"/>
	<path class="st9" d="M-5468.2,734.2c-89.2,26.2-413.5-74.9-496.1-55.9c-82.6,19-282.5,112.7-289.1,163.7
		c-6.4,51,255.1-22.5,297.8-19.9c42.7,2.7,288.1,118.5,300.5,187.1c12.4,68.6-192,152.4-224.3,218.5c-32.4,66,59.1,67.1,117.3,47
		c58.2-20.2,201.8-97.9,240.4-99.2c38.5-1.3,183.6-30.2,183.6-30.2L-5468.2,734.2z"/>
	
		<linearGradient id="SVGID_2_" gradientUnits="userSpaceOnUse" x1="-3720.1743" y1="-2274.7754" x2="-3360.7197" y2="-3678.9727" gradientTransform="matrix(0.93 0 0 -0.93 -440.8546 -3167.7439)">
		<stop  offset="0" style="stop-color:#209395"/>
		<stop  offset="0.5348" style="stop-color:#1E8D8F"/>
		<stop  offset="1" style="stop-color:#1B8687"/>
	</linearGradient>
	<path class="st11" d="M-3589.3-1128.6c-212.2,86.4-397.3,352.6-498.3,545.6c-101,193-211,478.1-197.8,508.3
		c13.2,30.1,297.2,287.9,771.4,290c82.6,0.4,269.8-630.6,290.6-844.8C-3202.6-843.7-3221.7-1278.2-3589.3-1128.6z"/>
	
		<linearGradient id="SVGID_3_" gradientUnits="userSpaceOnUse" x1="-3660.0769" y1="-3764.5137" x2="-3763.4377" y2="-3168.6692" gradientTransform="matrix(0.93 0 0 -0.93 -440.8546 -3167.7439)">
		<stop  offset="0" style="stop-color:#177678"/>
		<stop  offset="0.7436" style="stop-color:#1A8182"/>
		<stop  offset="1" style="stop-color:#1B8687"/>
	</linearGradient>
	<path class="st12" d="M-4356.9-60.1c211.1,249.2,580.9,342.1,892.7,326.9c68.2-3.3,64.9-109.5-3.4-106.2
		c-286.9,14-622.4-69-816.7-298.3C-4328.4-189.7-4400.7-111.7-4356.9-60.1L-4356.9-60.1z"/>
	
		<linearGradient id="SVGID_4_" gradientUnits="userSpaceOnUse" x1="-2597.7595" y1="-2218.0867" x2="-2697.2654" y2="-4672.0444" gradientTransform="matrix(0.93 0 0 -0.93 -440.8546 -3167.7439)">
		<stop  offset="0" style="stop-color:#00C4C4"/>
		<stop  offset="1" style="stop-color:#009798"/>
	</linearGradient>
	<path class="st13" d="M-2967.7-1339.8c-163.5,0-641,202.6-785.1,549.4c-144.2,346.8-331.7,2129.2-346.9,2174.7
		c-15.2,45.5,741.1,199.5,1227.2,199.5s1012.2-112.8,1052.6-168.4c40.5-55.6-228.5-1722.6-237.7-1857.1
		C-2067-576.2-2188.3-1339.8-2967.7-1339.8z"/>
	
		<linearGradient id="SVGID_5_" gradientUnits="userSpaceOnUse" x1="-3187.8533" y1="-2217.9756" x2="-2327.6255" y2="-2217.9756" gradientTransform="matrix(0.93 0 0 -0.93 -440.8546 -3167.7439)">
		<stop  offset="0" style="stop-color:#00C4C4"/>
		<stop  offset="3.744924e-02" style="stop-color:#00BCBC"/>
		<stop  offset="0.1463" style="stop-color:#00ABAC"/>
		<stop  offset="0.2819" style="stop-color:#00A0A0"/>
		<stop  offset="0.472" style="stop-color:#00999A"/>
		<stop  offset="1" style="stop-color:#009798"/>
	</linearGradient>
	<path class="st14" d="M-3178.5-1323.2c-7.4-27.3-55.9-42.9-90.5,0c-34.6,42.9-233,394.1-78.5,485.3
		c154.5,91.3,439.2-34.2,604-255.9c129.5-174.1,134.3-234.3,137.8-272.9c3.5-38.6-79.5-53-104.6-4.7
		C-2729.4-1334.7-3178.5-1323.2-3178.5-1323.2z"/>
	<g>
		
			<linearGradient id="SVGID_6_" gradientUnits="userSpaceOnUse" x1="-3857.5444" y1="-3555.425" x2="-3635.7603" y2="-3555.425" gradientTransform="matrix(0.93 0 0 -0.93 -440.8546 -3167.7439)">
			<stop  offset="0" style="stop-color:#00C4C4"/>
			<stop  offset="3.744924e-02" style="stop-color:#00BCBC"/>
			<stop  offset="0.1463" style="stop-color:#00ABAC"/>
			<stop  offset="0.2819" style="stop-color:#00A0A0"/>
			<stop  offset="0.472" style="stop-color:#00999A"/>
			<stop  offset="1" style="stop-color:#009798"/>
		</linearGradient>
		<path class="st15" d="M-3847.3-424.4c-53,186.7-84.9,381.2-115.6,572.5c-29.1,181.2-63,368.8-65.6,552.5
			c-0.2,12.1,19.4,15.4,21.7,3c33.3-185.9,46.8-375.9,77.2-562.6c30.5-187.3,73.8-371.9,107.1-558.6
			C-3819.5-433.6-3842.7-440.6-3847.3-424.4z"/>
		
			<linearGradient id="SVGID_7_" gradientUnits="userSpaceOnUse" x1="-3647.2156" y1="-2874.7683" x2="-3613.3079" y2="-2874.7683" gradientTransform="matrix(0.93 0 0 -0.93 -440.8546 -3167.7439)">
			<stop  offset="0" style="stop-color:#00C4C4"/>
			<stop  offset="3.744924e-02" style="stop-color:#00BCBC"/>
			<stop  offset="0.1463" style="stop-color:#00ABAC"/>
			<stop  offset="0.2819" style="stop-color:#00A0A0"/>
			<stop  offset="0.472" style="stop-color:#00999A"/>
			<stop  offset="1" style="stop-color:#009798"/>
		</linearGradient>
		<path class="st16" d="M-3819.2-509.7c-8-0.9-14.5,5.7-13.5,13.7c-2,12.8,16,24.3,27,13.3C-3794.8-493.7-3806.2-511.9-3819.2-509.7
			z"/>
	</g>
	<g>
		<path class="st17" d="M-3225.1,570c102.3-21.4,390.2-909.1,605.4-1160.7S-2008.9-726-2008.9-422
			c0,528.4-615.5,1524.4-737.1,1594.5c-174.8,100.9-1529.1,66.1-1650.7,42.8c-121.6-23.3-341.3-336.7-201.1-434.9
			C-4457.5,682.3-3381.6,602.8-3225.1,570z"/>
		<path class="st17" d="M-4479.8,738.2c-230.2,15.6-417.3,20.6-545.9,60.4s-472.8,232.3-486.1,277.8
			c-13.3,45.5,101.7,10.7,101.7,10.7s-107,83.1-85.6,124.4c21.4,41.4,264.8-68.3,264.8-68.3s-144.4,109.7-112.3,155.1
			c32.1,45.5,189.9-34.8,189.9-34.8s-57.3,48.2-24.6,80.3c32.6,32.1,310.8-128.3,415.2-132.3s193.6,46.9,352.3,0L-4479.8,738.2z"/>
	</g>
	
		<linearGradient id="SVGID_8_" gradientUnits="userSpaceOnUse" x1="-3862.5266" y1="-4648.583" x2="-2120.0671" y2="-3519.6641" gradientTransform="matrix(0.93 0 0 -0.93 -440.8546 -3167.7439)">
		<stop  offset="0" style="stop-color:#FFAC98"/>
		<stop  offset="1" style="stop-color:#C28172"/>
	</linearGradient>
	<path class="st18" d="M-3225.1,570c102.3-21.4,390.2-909.1,605.4-1160.7S-2008.9-726-2008.9-422c0,528.4-615.5,1524.4-737.1,1594.5
		c-174.8,100.9-1529.1,66.1-1650.7,42.8c-121.6-23.3-341.3-336.7-201.1-434.9C-4457.5,682.3-3381.6,602.8-3225.1,570z"/>
	<path class="st9" d="M-4479.8,738.2c-230.2,15.6-417.3,20.6-545.9,60.4s-472.8,232.3-486.1,277.8c-13.3,45.5,101.7,10.7,101.7,10.7
		s-107,83.1-85.6,124.4c21.4,41.4,264.8-68.3,264.8-68.3s-144.4,109.7-112.3,155.1c32.1,45.5,189.9-34.8,189.9-34.8
		s-57.3,48.2-24.6,80.3c32.6,32.1,310.8-128.3,415.2-132.3s193.6,46.9,352.3,0L-4479.8,738.2z"/>
	<g>
		
			<linearGradient id="SVGID_9_" gradientUnits="userSpaceOnUse" x1="-2093.7427" y1="-2034.0677" x2="-2161.9507" y2="-3716.1707" gradientTransform="matrix(0.93 0 0 -0.93 -440.8546 -3167.7439)">
			<stop  offset="0" style="stop-color:#00C4C4"/>
			<stop  offset="3.744924e-02" style="stop-color:#00BCBC"/>
			<stop  offset="0.1463" style="stop-color:#00ABAC"/>
			<stop  offset="0.2819" style="stop-color:#00A0A0"/>
			<stop  offset="0.472" style="stop-color:#00999A"/>
			<stop  offset="1" style="stop-color:#009798"/>
		</linearGradient>
		<path class="st19" d="M-2619.2-1285.4c128.9,36.1,606.8,241.3,719.5,525.8c112.7,284.6-107.6,1034.7-139.8,1055.1
			c-32.2,20.5-580.9,6.2-941-287C-3057.3-53.9-2619.2-1285.4-2619.2-1285.4z"/>
		<g class="st20">
			
				<image style="overflow:visible;enable-background:new    ;" width="5329" height="7417" xlink:href="6D1A3B0E.png"  transform="matrix(0.2231 0 0 0.2231 -3023.1624 -1318.8899)">
			</image>
		</g>
		<g>
			
				<linearGradient id="SVGID_10_" gradientUnits="userSpaceOnUse" x1="-2695.6404" y1="-2994.8992" x2="-2712.8618" y2="-3419.6155" gradientTransform="matrix(0.93 0 0 -0.93 -440.8546 -3167.7439)">
				<stop  offset="0" style="stop-color:#00C4C4"/>
				<stop  offset="3.744924e-02" style="stop-color:#00BCBC"/>
				<stop  offset="0.1463" style="stop-color:#00ABAC"/>
				<stop  offset="0.2819" style="stop-color:#00A0A0"/>
				<stop  offset="0.472" style="stop-color:#00999A"/>
				<stop  offset="1" style="stop-color:#009798"/>
			</linearGradient>
			<path class="st21" d="M-2928.5-373.8c-34.6,122.2-62.9,247.9-75.2,374.4c-1.2,12.4,19.4,15.3,21.9,3
				c23.9-124.3,45.4-248.4,73.5-371.8C-2905.5-381.3-2924.8-386.8-2928.5-373.8z"/>
			
				<linearGradient id="SVGID_11_" gradientUnits="userSpaceOnUse" x1="-2649.8374" y1="-2941.0376" x2="-2651.2183" y2="-2975.0938" gradientTransform="matrix(0.93 0 0 -0.93 -440.8546 -3167.7439)">
				<stop  offset="0" style="stop-color:#00C4C4"/>
				<stop  offset="3.744924e-02" style="stop-color:#00BCBC"/>
				<stop  offset="0.1463" style="stop-color:#00ABAC"/>
				<stop  offset="0.2819" style="stop-color:#00A0A0"/>
				<stop  offset="0.472" style="stop-color:#00999A"/>
				<stop  offset="1" style="stop-color:#009798"/>
			</linearGradient>
			<path class="st22" d="M-2894.5-428.2c-7-7-18.5-5.1-23.6,3.1c-0.6,0.8-1,1.7-1.6,2.6c-7.5,12.1,7.5,27.2,19.6,19.6
				c0.8-0.6,1.7-1.1,2.6-1.6C-2889.3-409.6-2887.4-421.2-2894.5-428.2z"/>
		</g>
		
			<linearGradient id="SVGID_12_" gradientUnits="userSpaceOnUse" x1="-2237.3384" y1="-3338.0369" x2="-2254.8989" y2="-3771.1025" gradientTransform="matrix(0.93 0 0 -0.93 -440.8546 -3167.7439)">
			<stop  offset="0" style="stop-color:#00C4C4"/>
			<stop  offset="3.744924e-02" style="stop-color:#00BCBC"/>
			<stop  offset="0.1463" style="stop-color:#00ABAC"/>
			<stop  offset="0.2819" style="stop-color:#00A0A0"/>
			<stop  offset="0.472" style="stop-color:#00999A"/>
			<stop  offset="1" style="stop-color:#009798"/>
		</linearGradient>
		<path class="st23" d="M-3056.4,8.8c246.4,273.6,665.4,368.4,1016.9,339.9c67.7-5.5,68.3-111.7,0-106.2
			c-325.3,26.3-712.9-54.7-941.8-308.9C-3027.1-117.2-3102.1-41.9-3056.4,8.8L-3056.4,8.8z"/>
	</g>
	<path class="st9" d="M-2715.5-1818.5c-0.7,14.4-0.8,27.2-0.4,38.1c0,1.3,0.2,2.6,0.2,3.7c7.8,130.8,15.7,394.9,0,434.1
		c-109.8,274.9-436.1,471.6-543.3,419.3c-107.2-52.3,56.9-280.7,75.1-348.7c2.3-8.8,4.1-19.6,5.4-31.9c8.5-81.7-5.4-224.4-5.4-224.4
		s-243.2,138.6-452.6,0c-124.9-82.7-154.7-404.9-134.5-685.1c1.3-16.8,2.6-33.5,4.3-49.8c4.7-50.3,11.2-98.8,19-143.5
		c17.9-104.8,43.2-189.3,72.1-230.6c225.1-321.7,886.6-103.5,967.9,104.6c42.1,108.1,37.9,266,24,412.6
		C-2694.5-2001.8-2711.7-1890.5-2715.5-1818.5z"/>
	<path d="M-2822.7-2013c-33.4,80.4-107.7,5.7-125.9-213.2c-1.9-21.8-206.9,34-266.8-212.8c0,0-197.8,154.3-326.6-81.7
		c0,0-110.4,137.8-246.5,110.8c-176-34.9-213.3-373.7-33.2-525.2c190.1-160.1,376,19.9,376,19.9s169.5-105,365.4-44.2
		c204.9,63.6,250,273.1,250,273.1s163,22.2,273.7,169.3c110.7,147-107,696.9-156.1,698.7C-2761.7-1816.4-2822.7-2013-2822.7-2013z"
		/>
	<path d="M-3678.6-2059.5c1.2,21.1-11,39-27.2,39.9c-16.3,0.9-30.4-15.3-31.7-36.5c-1.2-21.1,11-39,27.2-39.9
		C-3694.1-2097-3679.8-2080.6-3678.6-2059.5z"/>
	<path d="M-3314.2-2042.5c1.2,21.1-11,39-27.2,39.9c-16.3,0.9-30.4-15.3-31.7-36.5c-1.3-21.1,11-39,27.2-39.9
		C-3329.7-2079.9-3315.5-2063.5-3314.2-2042.5z"/>
	<path d="M-3638.2-2244c1.2,20.3-31.5,38.6-73,41s-76.2-12-77.3-32.3c-1.2-20.3,31.5-38.6,73-41
		C-3674-2278.6-3639.4-2264.1-3638.2-2244z"/>
	<path d="M-3252.3-2198.8c-5,19.6-41.8,27.3-82,16.9c-40.3-10.3-68.9-34.6-63.9-54.2c5-19.6,41.8-27.3,82-16.9
		C-3275.9-2242.6-3247.3-2218.4-3252.3-2198.8z"/>
	<path class="st24" d="M-3547.9-1936c-11,6-39.2,21.4-51.2,8.2c-14.9-16.5,19.4-238.9,25.9-293c0.7-5.8-7.3-7.5-8.8-1.9
		c-24,85.6-66.1,315.5-24.2,321c23.8,3.2,51.2-8.7,66.7-22C-3532.7-1929.9-3539.5-1940.7-3547.9-1936z"/>
	<path class="st3" d="M-3329.8-1781.6c-22.8,29.3-62.7,39-100.1,39.9c-34.2,0.7-80.1-9-95.8-43.2c-1.4-3-2.5-6-3.2-9.2
		c-0.2-0.9-0.5-2-0.7-3.2c-4.1-21.4,4.9-44.8,29.3-50.3c21.9-4.9,41,3.2,62.7,1.8c17.4-0.9,29.9-8.6,44-18.2
		c31.8-22.3,67.4-5.2,76.9,25c0.5,1.4,0.9,2.7,1.1,4.1C-3311.8-1819.3-3315.3-1800.3-3329.8-1781.6z"/>
	<g class="st25">
		
			<image style="overflow:visible;enable-background:new    ;" width="1271" height="900" xlink:href="6D1A3B12.png"  transform="matrix(0.222 0 0 0.222 -3563.3843 -1907.9347)">
		</image>
	</g>
	<g>
		<path class="st24" d="M-3428.5-1793.4c-33.4,5.4-67.6,6.8-100.4-0.9c-0.2-0.9-0.5-2-0.7-3.2c33.9,4.3,66.5,6.8,100.8,2.7
			C-3427.9-1794.7-3427.6-1793.4-3428.5-1793.4z"/>
		<path class="st24" d="M-3315.6-1835.1c-16,13.5-35,23.3-55.4,29.1c-0.9,0.2-1.4-1.1-0.5-1.6c20.3-7.4,38.5-18,54.8-31.5
			C-3316.3-1837.8-3315.8-1836.4-3315.6-1835.1z"/>
	</g>
	<path class="st26" d="M-2830.4-1996.7c19.8-44.3,64.1-129.6,169.3-123.5c106.8,6.1,157.1,117.5,135.7,212
		c-21.4,94.6-135.7,187.6-280.6,88.4L-2830.4-1996.7z"/>
	<path class="st24" d="M-2609.5-1939.8c-33.4-18.6-88.4-4.7-116.9,25.9c14.8-43.4,36.9-80.4,75.2-111.5c3.7-3.1-1.1-8.5-5-6.3
		c-55.1,29.9-96.4,91.9-90,155.8c0.1,1.3,0.8,2.3,1.7,3c0.7,1.8,3.1,2,4.5,0.7c1.1-0.5,2.1-1.2,2.6-2.8c0-0.2,0.1-0.4,0.1-0.5
		c26.6-38.9,77.5-67.1,125.4-57.7C-2608.2-1932.5-2605.8-1937.8-2609.5-1939.8z"/>
	<polygon class="st27" points="-3952,1327.6 -5867.4,1327.6 -5867.4,1192.1 -3952,1247.2 	"/>
	<path class="st28" d="M-5003.6,597.9H-7447c-118.4,0-219.4-85.7-238.8-202.5L-7973-1334.1c-24.5-147.5,89.3-281.8,238.8-281.8
		h2443.4c118.4,0,219.4,85.7,238.8,202.5l287.2,1729.7C-4740.2,463.7-4854.1,597.9-5003.6,597.9z"/>
	<path class="st27" d="M-5162.3,597.9h-2443.4c-118.4,0-219.4-85.7-238.8-202.5l-287.3-1729.6c-24.5-147.5,89.3-281.8,238.8-281.8
		h2443.4c118.4,0,219.4,85.7,238.8,202.5l287.2,1729.7C-4899,463.7-5012.7,597.9-5162.3,597.9z"/>
	<rect x="-7527.9" y="1241.6" class="st28" width="2017.2" height="85.9"/>
	<polygon class="st28" points="-6147.1,1241.6 -7130.7,1241.6 -6946.9,-168.5 -5963.3,-168.5 	"/>
	<polygon class="st29" points="-6278.4,1241.6 -7262,1241.6 -7078.3,-168.5 -6094.6,-168.5 	"/>
	<g>
		<path class="st28" d="M-7067-397.8L-7067-397.8c-21.9,0-40.6-15.8-44.3-37.5l-62.6-372.7c-4.6-27.3,16.5-52.3,44.3-52.3l0,0
			c21.9,0,40.6,15.8,44.3,37.5l62.6,372.7C-7018.2-422.8-7039.2-397.8-7067-397.8z"/>
		<path class="st28" d="M-6914.7-397.8L-6914.7-397.8c-21.9,0-40.6-15.8-44.3-37.5l-62.6-372.7c-4.6-27.3,16.5-52.3,44.3-52.3l0,0
			c21.9,0,40.6,15.8,44.3,37.5l62.6,372.7C-6865.7-422.8-6886.9-397.8-6914.7-397.8z"/>
		<path class="st28" d="M-6762.3-397.8L-6762.3-397.8c-21.9,0-40.6-15.8-44.3-37.5l-62.6-372.7c-4.6-27.3,16.5-52.3,44.3-52.3l0,0
			c21.9,0,40.6,15.8,44.3,37.5l62.6,372.7C-6713.4-422.8-6734.5-397.8-6762.3-397.8z"/>
		<path class="st28" d="M-6609.9-397.8L-6609.9-397.8c-21.9,0-40.6-15.8-44.3-37.5l-62.6-372.7c-4.6-27.3,16.5-52.3,44.3-52.3l0,0
			c21.9,0,40.6,15.8,44.3,37.5l62.6,372.7C-6561.1-422.8-6582.2-397.8-6609.9-397.8z"/>
		<path class="st28" d="M-6457.6-397.8L-6457.6-397.8c-21.9,0-40.6-15.8-44.3-37.5l-62.6-372.7c-4.6-27.3,16.5-52.3,44.3-52.3l0,0
			c21.9,0,40.6,15.8,44.3,37.5l62.6,372.7C-6408.7-422.8-6429.8-397.8-6457.6-397.8z"/>
		<path class="st28" d="M-6305.2-397.8L-6305.2-397.8c-21.9,0-40.6-15.8-44.3-37.5l-62.6-372.7c-4.6-27.3,16.5-52.3,44.3-52.3l0,0
			c21.9,0,40.6,15.8,44.3,37.5l62.6,372.7C-6256.4-422.8-6277.5-397.8-6305.2-397.8z"/>
		<path class="st28" d="M-6152.9-397.8L-6152.9-397.8c-21.9,0-40.6-15.8-44.3-37.5l-62.6-372.7c-4.6-27.3,16.5-52.3,44.3-52.3l0,0
			c21.9,0,40.6,15.8,44.3,37.5l62.6,372.7C-6104-422.8-6125.2-397.8-6152.9-397.8z"/>
		<path class="st28" d="M-6000.5-397.8L-6000.5-397.8c-21.9,0-40.6-15.8-44.3-37.5l-62.6-372.7c-4.6-27.3,16.5-52.3,44.3-52.3l0,0
			c21.9,0,40.6,15.8,44.3,37.5l62.6,372.7C-5951.7-422.8-5972.8-397.8-6000.5-397.8z"/>
	</g>
	<rect x="-8135" y="1327.6" class="st30" width="7105.4" height="256.2"/>
	
		<linearGradient id="SVGID_13_" gradientUnits="userSpaceOnUse" x1="-3316.4434" y1="-4190.4912" x2="-1159.9434" y2="-4190.4912" gradientTransform="matrix(0.93 0 0 -0.93 -440.8546 -3167.7439)">
		<stop  offset="0" style="stop-color:#A5E5DD"/>
		<stop  offset="1" style="stop-color:#AECCBE"/>
	</linearGradient>
	<polygon class="st31" points="-3525.3,530.9 -1519.6,530.9 -1519.6,928.2 -3525.3,928.2 	"/>
	<rect x="-3525.2" y="530.8" class="st32" width="1633.6" height="397.4"/>
	<g>
		<rect x="-3101.5" y="662.3" class="st17" width="990.1" height="134.6"/>
		<path class="st17" d="M-3393.4,729.5c0-43.5,35.3-78.9,78.9-78.9c43.5,0,78.9,35.3,78.9,78.9c0,43.5-35.3,78.9-78.9,78.9
			C-3358,808.4-3393.4,773.1-3393.4,729.5z"/>
	</g>
	<rect x="-2942.5" y="928.2" class="st33" width="1633.6" height="397.4"/>
	<g>
		<rect x="-2722.6" y="1059.6" class="st17" width="990.1" height="134.6"/>
		<path class="st17" d="M-1440.8,1126.9c0,43.5-35.3,78.9-78.9,78.9c-43.5,0-78.9-35.3-78.9-78.9c0-43.5,35.3-78.9,78.9-78.9
			C-1476,1048-1440.8,1083.3-1440.8,1126.9z"/>
	</g>
	<g>
		<g>
			<path class="st4" d="M-7366.8-3859.5c-17.8-3.6-27.1-16.7-34.6-31.5c-2.6-5-4.5-10.4-6.7-15.6c-0.4-0.9-0.7-1.9-1-2.6
				c-6.3,0.8-12.4,1.8-18.5,2.3c-9.7,0.8-19.3,0.4-28.6-2.6c-18.4-5.9-26.8-20.7-22.2-39.5c2.9-12.1,9.3-22.4,16.8-32.2
				c2.2-2.9,4.6-5.6,6.8-8.3c-3.3-4.6-6.9-9-10-13.7c-5.3-7.8-9.6-16.1-11.5-25.4c-4.1-19.1,5.2-34,24-39.2
				c12.8-3.4,25.7-2.8,38.6-0.7c1.7,0.3,3.3,0.6,4.8,0.7c2.4-5.6,4.6-11.1,7.1-16.4c3.7-7.9,8.5-15.2,14.7-21.4
				c14.6-14.6,33.1-14.6,47.7,0c8.4,8.4,13.9,18.5,18.3,29.4c1.1,2.7,2.1,5.4,3.3,8.5c2.7-0.5,5.5-0.9,8.3-1.3
				c12.5-1.7,24.8-2.1,37,1.8c12.3,3.9,20.8,11.6,23,24.9c1.3,8.1-0.6,15.8-3.5,23.3c-4,9.9-10,18.5-16.6,26.7
				c-0.7,0.8-1.4,1.7-2.1,2.6c2.2,2.7,4.5,5.4,6.7,8.1c7.3,9.3,13.6,19.3,16.7,30.9c2.9,10.7,2.4,20.9-4.6,30
				c-5.7,7.3-13.5,10.7-22.2,12.6c-12.9,2.7-25.8,1.6-38.6-0.7c-1-0.2-2.1-0.4-3.1-0.6c-2.6,6-4.8,12.1-7.6,17.9
				c-4.7,9.7-10.6,18.6-19.3,25.3c-4.7,3.6-10,5.7-15.6,6.9C-7362.1-3859.5-7364.5-3859.5-7366.8-3859.5z M-7405.7-3989.2
				c0.3,7.8,0.7,14.6,0.8,21.3c0.1,1.7,0.7,2.7,2.1,3.6c12,8.2,24.6,15.5,37.7,21.9c1.3,0.7,2.3,0.7,3.7,0
				c13.1-6.4,25.6-13.8,37.7-21.9c1.4-0.9,2-2,2.1-3.6c0.8-14.5,1-29.1-0.4-43.6c-0.1-0.9-0.8-2.1-1.7-2.7
				c-12.1-8.3-24.7-15.5-38-21.7c-0.8-0.4-2.1-0.4-3,0c-13.4,6.2-26.1,13.5-38.2,21.9c-0.7,0.5-1.4,1.7-1.5,2.6
				C-7405-4003.7-7405.3-3995.9-7405.7-3989.2z M-7444.9-3978.8c-4.5,6.4-9.2,12.5-13.1,19.1c-2.6,4.5-4.6,9.5-6,14.5
				c-2.8,10.5,1.5,17.7,11.8,21.2c0.8,0.3,1.8,0.6,2.6,0.7c8.6,2.1,17.4,1.8,26.1,0.7c3.3-0.4,6.5-1,9.7-1.5
				c-1.5-8.2-3.5-15.9-4.1-23.8c-0.5-7.1-3.3-11.6-9-15.6C-7432.9-3967.8-7438.4-3973.3-7444.9-3978.8z M-7313.2-3924.1
				c9.6,1.9,19.2,3.2,28.7,2c4.5-0.6,9.1-1.7,13.2-3.4c7-3,10.1-9.2,8.9-16.7c-2.2-14.6-11.1-25.4-20.1-36.4c-0.5,0.4-0.7,0.6-1,0.7
				c-7.7,6.5-15.4,13-23.1,19.7c-0.7,0.7-1.3,1.8-1.4,2.7c-1,6.1-1.9,12.4-2.9,18.6C-7311.3-3932.7-7312.2-3928.4-7313.2-3924.1z
				 M-7332.2-3913c-0.5-0.3-0.7-0.5-1.1-0.6c-9.6-3.5-19.3-7.2-28.9-10.6c-0.8-0.3-2-0.2-2.8,0.2c-6.5,2.5-13,5.1-19.6,7.6
				c-3.3,1.2-6.6,2.2-10.4,3.4c3.2,6.7,5.9,13.3,9.2,19.5s7.5,11.9,13.5,15.9c6,4,11.9,4.1,17.8,0c2.4-1.7,4.7-3.7,6.7-6
				C-7340.3-3892.1-7336-3902.3-7332.2-3913z M-7332.5-4064.3c-1.6-3.8-3-7.6-4.7-11.3c-3.8-8.1-8.2-15.7-15.3-21.5
				c-7.3-5.9-14.3-5.8-21.7,0.1c-5.9,4.7-9.9,10.9-13.2,17.5c-2.5,4.9-4.6,10.1-6.7,14.9c9.9,3.7,19.3,7.2,28.6,10.7
				c1.6,0.7,2.9,0.7,4.5-0.1c3.5-1.6,7.1-3,10.7-4.3C-7344.5-4060.3-7338.7-4062.3-7332.5-4064.3z M-7413.3-4053.3
				c-4.8-0.6-9.8-1.3-14.8-1.6c-7.7-0.6-15.4-0.2-22.8,2.5c-9.3,3.4-13,10.3-11.1,20c2.6,12.5,10,22.2,17.7,31.7
				c6.4-5.4,12.5-11,19.1-15.7c4.6-3.3,7-6.7,7.5-12.5C-7416.8-4037-7414.8-4045-7413.3-4053.3z M-7313.6-4053.1
				c0.1,0.7,0.3,1.1,0.4,1.6c1.7,9.1,3.4,18.2,4.9,27.3c0.4,2,1,3.3,2.6,4.5c2.4,1.7,4.7,3.4,7,5.3c5.4,4.5,10.7,9,16.2,13.7
				c0.9-1.2,2-2.3,3-3.6c6.1-7.9,11.6-16.1,14.3-25.9c3.2-11.9-1-19.5-12.9-23C-7289.8-4056.6-7301.6-4055.2-7313.6-4053.1z
				 M-7402.5-3945.7c1.3,6.3,2.4,12.1,3.6,18.2c6-2,11.4-3.9,17.4-6C-7388.5-3937.5-7395.2-3941.4-7402.5-3945.7z M-7324.2-3945.6
				c-7.3,4.3-14,8.2-21.1,12.3c6,2,11.6,3.9,17.5,5.9C-7326.6-3933.6-7325.5-3939.4-7324.2-3945.6z M-7305.9-4001.2
				c0,8,0,15.5,0,23.6c4.6-4.2,8.8-8,13.3-12C-7297.2-3993.4-7301.4-3997.2-7305.9-4001.2z M-7434-3989.4c4.6,4.1,8.7,7.9,13.4,12
				c0-8.2,0-15.6,0-23.7C-7425.2-3997.2-7429.3-3993.4-7434-3989.4z M-7398.5-4049.9c-1.2,5.8-2.3,11.3-3.6,17
				c6.9-4,13.4-7.6,20.3-11.6C-7387.6-4046.4-7392.8-4048-7398.5-4049.9z M-7328.4-4049.8c-5.3,1.8-10.6,3.4-16.4,5.4
				c7,4,13.4,7.6,20.3,11.6c-1.1-5.4-2.1-10.2-3.3-15.2C-7328-4048.5-7328.2-4049.1-7328.4-4049.8z"/>
			<path class="st4" d="M-7363.3-3964.8c-12.9,0-23.3-10.3-23.3-23.3s10.4-23.3,23.3-23.2c12.8,0.1,23.1,10.2,23.1,23.2
				C-7340.1-3975.1-7350.4-3964.8-7363.3-3964.8z"/>
		</g>
	</g>
	
		<text transform="matrix(1.0157 0 0 1 -2898.9387 -3966.825)" class="st4" style="font-family:'Lato-Regular'; font-size:78.3334px;">Java</text>
	<g>
		<g>
			<path class="st1" d="M-2773.2-4514.8c1.6,2,3.3,3.8,4.6,5.9c17.9,30.4,14,65.6-11.3,90.4c-15,14.7-31.5,27.8-47.3,41.7
				c-4.7,4.2-9.4,8.5-14.1,12.6c-10.3,9.1-13,20.5-10.9,33.8c3.7,23,11.5,44.5,21.4,65.6c0.8,1.9,2.2,3.6,2.5,5.6
				c0.3,2-0.4,4.2-0.7,6.3c-2-0.5-4.6-0.2-6-1.4c-19.8-16.4-37.5-34.5-48.5-58c-10.1-21.7-8.9-42.4,4.7-62.5
				c10.9-16.1,24.9-28.8,40.5-40.2c12.9-9.4,26-18.6,38.6-28.6c14.1-11.3,19.3-27.3,21.5-44.3c0.8-6.6,0-13.5,0.2-20.2
				c0.1-2.3,1.2-4.6,1.9-6.9C-2775.1-4514.8-2774.2-4514.8-2773.2-4514.8z"/>
			<path class="st1" d="M-2966.4-4091.8c9.9,2.2,19.6,5,29.6,6.5c56.3,8.6,112.7,8.6,169.3,3.2c25.4-2.5,50.6-6,75.3-12.6
				c4.3-1.1,8.5-2.8,12.6-4.4c2.7-1,3.7-2.9,2.8-6c-0.5-1.4,0.1-4.4,1-4.7c1.5-0.7,4.2-0.5,5.6,0.6c8.2,5.6,9.1,16,1.2,22
				c-5.6,4.3-12.2,7.5-18.8,10c-22.6,8.6-46.3,12.6-70.2,15.7c-45.9,5.9-91.9,6.4-138,4.7c-26.8-1-53.6-2.4-79.6-9.4
				c-7.9-2.1-15.5-4.9-21.6-10.7c-8.9-8.5-7.2-19.4,3.8-25.1c11.8-6.1,24.8-7.7,37.8-9.3c8.2-1,16.6-1.4,24.7-2
				c2.9-0.2,6.3-0.7,6.9,3.1c0.7,4.2-3.2,4.4-6,5.1c-10,2.7-19.9,5.3-29.9,8.2c-2.3,0.7-4.5,2.1-6.6,3.3
				C-2966.4-4093.1-2966.4-4092.5-2966.4-4091.8z"/>
			<path class="st1" d="M-2921.2-4230.9c9.4,1,18.8,2.5,28.3,3.1c39.5,2.5,79.1,1.5,118.4-2.2c15.2-1.5,30.1-4.6,45.3-6.6
				c2.2-0.3,6,0.3,7,1.8c2,3.2-1.3,4.9-3.6,6.5c-15.3,10-32.6,15.5-50.3,19.7c-37.1,8.8-74.8,9.5-112.5,7.9
				c-16.5-0.7-32.7-2.2-48.5-7c-6.1-1.9-12.3-4.5-17.8-7.7c-12.1-7.2-11.5-20.5,0.7-27.3c10.3-5.8,21.9-7.6,33.5-8.9
				c12-1.3,24.2-1.7,36.2-2.3c2.9-0.2,6.2-0.6,6.7,3.4c0.4,3.8-3.1,4.1-5.8,4.9c-10.6,3.3-21.2,6.4-31.8,9.9c-2,0.7-3.8,2-5.8,3.1
				C-2921.4-4232.1-2921.3-4231.5-2921.2-4230.9z"/>
			<path class="st1" d="M-2804.2-4238.8c0.7-1.7,1.2-2.9,1.6-4c2-6.2,3.9-12.6,5.7-18.9c1.8-6.2-0.1-11.6-4.1-16.6
				c-7.4-9.4-15.3-18.5-19.7-29.9c-4-10.4-6-21.2-5-32.3c1-11.2,7.5-19.8,15.2-27.5c14-14.3,31.2-24.2,48.9-33.2
				c9-4.6,18.5-8.4,27.7-12.6c2.4-1.1,4.9-1.9,6.7,0.9c1.9,3-0.5,4.6-2.4,6.2c-15.8,13.9-31.8,27.5-47.4,41.6
				c-3.5,3.2-6.2,7.5-8.6,11.8c-5,8.8-4.4,17.8,1.1,26.2c3.3,5,6.7,10,9.8,15.1c13.4,22.3,12,40.4-5.2,60
				c-5,5.8-11.2,10.7-16.9,15.8c-1.1,1-3.6,1.2-5.2,0.7C-2803.2-4235.6-2803.6-4237.8-2804.2-4238.8z"/>
			<path class="st1" d="M-2885.5-4138.1c7.5,1.2,15.6,2.7,23.7,3.8c28.9,4.2,57.5,0.5,85.9-4.9c2.5-0.5,5.7,0.2,8,1.4
				c7,3.7,13.8,7.9,20.4,12.2c1.8,1.1,3.7,3.3,3.7,5.2c0.1,1.3-2.6,3.3-4.4,4.1c-16.6,7-34.2,10.9-52.2,12.9
				c-29,3.3-57.8,1.9-86.4-4.5c-8.5-1.9-16.6-4.5-23.3-10.3c-9-8-7.6-19.9,3.3-25.1c4.7-2.1,10-3.2,15.1-4c2.1-0.4,5.3,0.4,6.7,1.8
				C-2883.8-4144.4-2885.1-4141.3-2885.5-4138.1z"/>
			<path class="st1" d="M-2903.5-4184.9c6.2,1.2,12.5,2.9,18.8,3.5c40.5,4.2,80.5,0.9,120.1-8.1c4.2-0.9,7.6-0.7,11.1,2
				c4.6,3.6,9.8,6.6,14.3,10.1c1.6,1.2,3.3,3.5,3.1,5.1c-0.3,1.5-2.9,3.3-4.7,3.6c-22,4.1-44.1,8.7-66.3,11.5
				c-17.8,2.2-35.9,3-53.8,2.8c-18-0.1-35.9-2.9-52.7-9.8c-3.9-1.6-7.8-3.7-11.1-6.3c-6.7-5.4-7-13.4,0.3-17.8c7.3-4.4,15.8-7,24-10
				c1-0.4,3.6,1.2,4.3,2.5c0.5,0.9-0.6,3.3-1.6,4.3c-1.7,1.7-3.9,2.9-5.9,4.2C-2903.6-4186.2-2903.6-4185.6-2903.5-4184.9z"/>
			<path class="st1" d="M-2839.2-4049.3c33.3-1.3,66.6-1.9,99.9-4.1c27.5-1.9,53.9-9,78.1-22.7c3.4-2,6.3-4.7,9.8-6.7
				c1.7-0.9,4-0.8,6-1.3c0.4,2,1.6,4.3,1,6c-2,7-6.5,12.6-12.1,17.2c-12.5,10.5-27.4,15.9-43.2,18.9c-49.1,9.3-98.8,12-148.5,7.9
				c-25.9-2.1-51.8-6.3-77.8-9.6c-0.7-0.1-1.2-0.2-1.9-0.4c-2.8-0.6-5.7-1.4-5-4.9c0.6-3.3,3.3-3.3,6-3.2c22,0.6,44,1.2,66,1.7
				c7.2,0.2,14.3,0,21.5,0C-2839.3-4050.2-2839.3-4049.7-2839.2-4049.3z"/>
			<path class="st1" d="M-2678.9-4260.5c18.5-0.1,31.5,10.2,36.9,27.4c6.7,21.4-1.8,37.2-17.9,49.3c-16.8,12.6-36.3,19.4-56.5,24.2
				c-1.7,0.4-3.8-1.1-5.8-1.8c0.9-2,1.3-4.5,2.7-5.8c11.9-10.3,24.4-20.1,36-30.9c4.7-4.3,8.1-10.1,10.9-15.8
				c4.1-8.4,0.9-16.9-7.1-21.9c-9-5.8-19.2-7.3-29.5-8.5c-2.1-0.3-4.2-2-6.2-3.2c1.6-1.9,2.7-4.6,4.7-5.5
				C-2700.6-4257.4-2690.1-4260.5-2678.9-4260.5z"/>
		</g>
	</g>
	<text transform="matrix(1 0 0 1 -7847.9741 -3673.6135)" class="st4" style="font-family:'Lato-Regular'; font-size:196.1542px;">ReactNativ</text>
</g>
<g id="DESIGNED_BY_FREEPIK">
</g>
<g>
	<g>
		<g>
			<path class="st34" d="M827.3,334.2h-23.7c-1.3,0-2.4-1.1-2.4-2.4l0,0c0-1.3,1.1-2.4,2.4-2.4h23.7c1.3,0,2.4,1.1,2.4,2.4l0,0
				C829.8,333.1,828.7,334.2,827.3,334.2z"/>
			<path class="st34" d="M817.9,319.9v23.7c0,1.3-1.1,2.4-2.4,2.4l0,0c-1.3,0-2.4-1.1-2.4-2.4v-23.7c0-1.3,1.1-2.4,2.4-2.4l0,0
				C816.8,317.5,817.9,318.6,817.9,319.9z"/>
		</g>
		<g>
			<path class="st34" d="M963,768h-23.7c-1.3,0-2.4-1.1-2.4-2.4l0,0c0-1.3,1.1-2.4,2.4-2.4H963c1.3,0,2.4,1.1,2.4,2.4l0,0
				C965.4,766.9,964.3,768,963,768z"/>
			<path class="st34" d="M953.5,753.7v23.7c0,1.3-1.1,2.4-2.4,2.4l0,0c-1.3,0-2.4-1.1-2.4-2.4v-23.7c0-1.3,1.1-2.4,2.4-2.4l0,0
				C952.4,751.3,953.5,752.3,953.5,753.7z"/>
		</g>
		<g>
			<path class="st34" d="M397.2,58.5h-23.7c-1.3,0-2.4-1.1-2.4-2.4l0,0c0-1.3,1.1-2.4,2.4-2.4h23.7c1.3,0,2.4,1.1,2.4,2.4l0,0
				C399.6,57.4,398.5,58.5,397.2,58.5z"/>
			<path class="st34" d="M387.7,44.2v23.7c0,1.3-1.1,2.4-2.4,2.4l0,0c-1.3,0-2.4-1.1-2.4-2.4V44.2c0-1.3,1.1-2.4,2.4-2.4l0,0
				C386.6,41.8,387.7,42.9,387.7,44.2z"/>
		</g>
		<g>
			<path class="st34" d="M26.1,697.5H2.4c-1.3,0-2.4-1.1-2.4-2.4l0,0c0-1.3,1.1-2.4,2.4-2.4h23.7c1.3,0,2.4,1.1,2.4,2.4l0,0
				C28.6,696.4,27.5,697.5,26.1,697.5z"/>
			<path class="st34" d="M16.7,683.2v23.7c0,1.3-1.1,2.4-2.4,2.4l0,0c-1.3,0-2.4-1.1-2.4-2.4v-23.7c0-1.3,1.1-2.4,2.4-2.4l0,0
				C15.6,680.8,16.7,681.9,16.7,683.2z"/>
		</g>
		<g>
			<path class="st34" d="M508.9,593.2h-23.7c-1.3,0-2.4-1.1-2.4-2.4l0,0c0-1.3,1.1-2.4,2.4-2.4h23.7c1.3,0,2.4,1.1,2.4,2.4l0,0
				C511.3,592.1,510.2,593.2,508.9,593.2z"/>
			<path class="st34" d="M499.4,578.9v23.7c0,1.3-1.1,2.4-2.4,2.4l0,0c-1.3,0-2.4-1.1-2.4-2.4v-23.7c0-1.3,1.1-2.4,2.4-2.4l0,0
				C498.3,576.5,499.4,577.5,499.4,578.9z"/>
		</g>
		<path class="st34" d="M913.6,390.4h-38.6c-1.3,0-2.4-1.1-2.4-2.4l0,0c0-1.3,1.1-2.4,2.4-2.4h38.6c1.3,0,2.4,1.1,2.4,2.4l0,0
			C916,389.3,914.9,390.4,913.6,390.4z"/>
		<path class="st34" d="M957.8,399.8c0,1.3-1.1,2.4-2.4,2.4h-62.6c-1.3,0-2.5-1.1-2.5-2.4c0-1.3,1.1-2.4,2.5-2.4h62.6
			C956.7,397.3,957.8,398.4,957.8,399.8z"/>
		<path class="st34" d="M84.2,779.8c0,1.3-1.1,2.4-2.4,2.4H19.1c-1.3,0-2.5-1.1-2.5-2.4c0-1.3,1.1-2.4,2.5-2.4h62.6
			C83.1,777.4,84.2,778.5,84.2,779.8z"/>
		<path class="st34" d="M282.5,149.7h-38.6c-1.3,0-2.4-1.1-2.4-2.4l0,0c0-1.3,1.1-2.4,2.4-2.4h38.6c1.3,0,2.4,1.1,2.4,2.4l0,0
			C285,148.6,283.9,149.7,282.5,149.7z"/>
		<path class="st34" d="M361.6,136.9c0,1.3-1.1,2.4-2.5,2.4h-60.4c-1.3,0-2.4-1.1-2.4-2.4s1.1-2.4,2.4-2.4h60.4
			C360.5,134.5,361.6,135.5,361.6,136.9z"/>
		<path class="st34" d="M326.8,159.1c0,1.3-1.1,2.4-2.4,2.4h-62.6c-1.3,0-2.5-1.1-2.5-2.4s1.1-2.4,2.5-2.4h62.6
			C325.7,156.7,326.8,157.8,326.8,159.1z"/>
		<path class="st34" d="M613.5,65.2h-38.6c-1.3,0-2.4-1.1-2.4-2.4l0,0c0-1.3,1.1-2.4,2.4-2.4h38.6c1.3,0,2.4,1.1,2.4,2.4l0,0
			C615.9,64.1,614.8,65.2,613.5,65.2z"/>
		<path class="st34" d="M102.2,795.6H63.6c-1.3,0-2.4-1.1-2.4-2.4l0,0c0-1.3,1.1-2.4,2.4-2.4h38.6c1.3,0,2.4,1.1,2.4,2.4l0,0
			C104.7,794.5,103.6,795.6,102.2,795.6z"/>
		<path class="st34" d="M580.8,50.5c0,1.3-1.1,2.4-2.4,2.4h-62.6c-1.3,0-2.5-1.1-2.5-2.4s1.1-2.4,2.5-2.4h62.6
			C579.7,48,580.8,49.1,580.8,50.5z"/>
		<path class="st34" d="M580.3,73.7c0,1.3-1.1,2.4-2.4,2.4h-103c-1.3,0-2.5-1.1-2.5-2.4s1.1-2.4,2.5-2.4h103
			C579.2,71.3,580.3,72.4,580.3,73.7z"/>
	</g>
	<rect x="112.3" y="226.7" class="st35" width="420.9" height="297.4"/>
	<rect x="78.9" y="194" class="st36" width="420.9" height="297.4"/>
	<rect x="78.9" y="194" class="st37" width="420.9" height="31"/>
	<g>
		<rect x="115.3" y="349.5" class="st37" width="127.8" height="5.4"/>
		<rect x="115.3" y="359.9" class="st37" width="115.8" height="5.4"/>
		<rect x="115.3" y="370.3" class="st37" width="73.3" height="5.4"/>
		<rect x="115.3" y="380.8" class="st37" width="119.7" height="5.4"/>
		<rect x="115.3" y="391.2" class="st37" width="127.8" height="5.4"/>
		<rect x="284.5" y="254.8" class="st37" width="158" height="5.4"/>
		<rect x="284.5" y="265.2" class="st37" width="178.9" height="5.4"/>
		<rect x="284.5" y="275.6" class="st37" width="173.5" height="5.4"/>
		<rect x="284.5" y="286" class="st37" width="167.6" height="5.4"/>
		<rect x="284.5" y="296.5" class="st37" width="178.9" height="5.4"/>
		<rect x="115.3" y="412" class="st37" width="92.3" height="5.8"/>
		<rect x="115.3" y="422.5" class="st37" width="127.8" height="5.4"/>
		<rect x="115.3" y="432.9" class="st37" width="71.9" height="5.4"/>
		<rect x="115.3" y="443.3" class="st37" width="127.8" height="5.4"/>
		<rect x="115.3" y="453.7" class="st37" width="112.9" height="5.4"/>
		<rect x="284.5" y="318.2" class="st37" width="178.9" height="5.8"/>
		<rect x="284.5" y="328.7" class="st37" width="139" height="5.8"/>
		<rect x="284.5" y="339.1" class="st37" width="159.2" height="5.4"/>
		<rect x="284.5" y="349.5" class="st37" width="118.2" height="5.4"/>
		<rect x="284.5" y="359.9" class="st37" width="158.1" height="5.4"/>
		<g>
			<path class="st37" d="M367.5,459.4h-83v-83h83V459.4z M287.9,456h76.4v-76.4h-76.4V456z"/>
			<g>
				
					<rect x="324.4" y="361.5" transform="matrix(0.7071 -0.7071 0.7071 0.7071 -199.975 352.924)" class="st37" width="3.3" height="112.7"/>
				
					<rect x="269.7" y="416.2" transform="matrix(0.7071 -0.7071 0.7071 0.7071 -199.9798 352.9251)" class="st37" width="112.7" height="3.3"/>
			</g>
		</g>
		<g>
			<path class="st37" d="M465,459.4h-83v-83h83V459.4z M385.3,456h76.4v-76.4h-76.4V456z"/>
			<g>
				
					<rect x="421.8" y="361.5" transform="matrix(0.7071 -0.7071 0.7071 0.7071 -171.431 421.8285)" class="st37" width="3.3" height="112.7"/>
				
					<rect x="367.1" y="416.2" transform="matrix(0.7071 -0.7071 0.7071 0.7071 -171.4352 421.8302)" class="st37" width="112.7" height="3.3"/>
			</g>
		</g>
		<g>
			<path class="st37" d="M244.7,336.1H113.6v-83h131.1V336.1z M116.9,332.8h124.4v-76.4H116.9V332.8z"/>
			
				<rect x="177.5" y="219.3" transform="matrix(0.5293 -0.8485 0.8485 0.5293 -165.6337 290.6905)" class="st37" width="3.3" height="150.6"/>
			
				<rect x="103.8" y="293" transform="matrix(0.8485 -0.5292 0.5292 0.8485 -128.7764 139.4337)" class="st37" width="150.6" height="3.3"/>
		</g>
	</g>
	<rect x="58.5" y="88.9" class="st35" width="164.8" height="105.2"/>
	<rect x="40.1" y="70.4" class="st38" width="164.8" height="105.1"/>
	<rect x="40.1" y="70.4" class="st37" width="164.8" height="19.9"/>
	<rect x="31.1" y="70.4" class="st39" width="29.8" height="29.8"/>
	<rect x="23.2" y="62.5" class="st38" width="29.8" height="29.8"/>
	<g>
		
			<rect x="26.1" y="76.2" transform="matrix(0.7072 -0.7071 0.7071 0.7072 -43.5713 49.5999)" class="st37" width="24.1" height="2.4"/>
		
			<rect x="36.9" y="65.4" transform="matrix(0.7071 -0.7071 0.7071 0.7071 -43.5699 49.5999)" class="st37" width="2.4" height="24.1"/>
	</g>
	<rect x="668.1" y="37.8" class="st35" width="164.8" height="105.2"/>
	<rect x="651.3" y="19.3" class="st38" width="164.8" height="105.1"/>
	<rect x="651.3" y="19.3" class="st37" width="164.8" height="19.9"/>
	<rect x="642.3" y="19.3" class="st39" width="29.8" height="29.8"/>
	<rect x="634.4" y="11.4" class="st38" width="29.8" height="29.8"/>
	<g>
		
			<rect x="637.3" y="25.2" transform="matrix(0.7071 -0.7071 0.7071 0.7071 171.541 466.837)" class="st37" width="24.1" height="2.4"/>
		
			<rect x="648.1" y="14.3" transform="matrix(0.7071 -0.7071 0.7071 0.7071 171.5483 466.8226)" class="st37" width="2.4" height="24.1"/>
	</g>
	<rect x="781" y="169.5" class="st35" width="196.8" height="125.5"/>
	<rect x="758.9" y="147.4" class="st38" width="196.8" height="125.5"/>
	<rect x="758.9" y="147.4" class="st37" width="196.8" height="23.8"/>
	<rect x="748.2" y="147.4" class="st39" width="35.6" height="35.6"/>
	<rect x="738.8" y="138" class="st36" width="35.6" height="35.6"/>
	<g>
		
			<rect x="742.2" y="154.4" transform="matrix(0.7071 -0.7071 0.7071 0.7071 111.4034 580.5793)" class="st37" width="28.7" height="2.8"/>
		
			<rect x="755.1" y="141.4" transform="matrix(0.7071 -0.7071 0.7071 0.7071 111.4219 580.5665)" class="st37" width="2.8" height="28.7"/>
	</g>
	<g>
		<path class="st37" d="M827.2,248.8l-28.8-24.4c-1.5-1.3-1.5-3.6,0-4.9l28.8-24.4c1.2-1,3-0.9,4,0.3l0,0c1,1.2,0.9,3-0.3,4
			l-23.7,20.1c-1.5,1.3-1.5,3.6,0,4.9l23.7,20.1c1.2,1,1.3,2.8,0.3,4l0,0C830.2,249.7,828.4,249.8,827.2,248.8z"/>
		<path class="st37" d="M883.4,248.5L883.4,248.5c-1-1.2-0.9-3,0.3-4l23.7-20.1c1.5-1.3,1.5-3.6,0-4.9l-23.7-20.1
			c-1.2-1-1.3-2.8-0.3-4l0,0c1-1.2,2.8-1.4,4-0.3l28.8,24.4c1.5,1.3,1.5,3.6,0,4.9l-28.8,24.4C886.2,249.8,884.4,249.7,883.4,248.5z
			"/>
		<path class="st37" d="M840,261.6L840,261.6c-1.5-0.6-2.2-2.2-1.6-3.7l30.2-75.5c0.6-1.4,2.2-2.2,3.7-1.6l0,0
			c1.5,0.6,2.2,2.2,1.6,3.7L843.7,260C843.1,261.4,841.5,262.1,840,261.6z"/>
	</g>
	<path class="st40" d="M677.9,433.2c26.2-33.7,219.8-23.1,263.2,21.7s-67.4,230.9-65.8,391.7c0.3,26.4-224.6,21.9-245.9-2.7
		C595.9,805.2,591,545.3,677.9,433.2z"/>
	<g>
		
			<image style="overflow:visible;enable-background:new    ;" width="1738" height="2183" xlink:href="14F7AFBC.png"  transform="matrix(0.2396 0 0 0.2396 570.8569 377.4524)">
		</image>
	</g>
	<path class="st41" d="M377,802.4c0.7,22.5-143.7,29.4-153.7,12.3s14.6-40.8,34.4-48.5C290.4,753.4,376,771.8,377,802.4z"/>
	<g>
		<path class="st17" d="M313.6,748.7c-8.5-2.2-30.8-5.3-35.8-4.5c-9.4,1.5-27.6,14-24.2,19.5s20.4-3.7,26-3.3
			c5.5,0.3,31.7,4.8,31.7,4.8L313.6,748.7z"/>
		<path class="st17" d="M506.8,711.1c11.5-2.8,43.5-83.8,66.8-112.9c23.3-29.1,68.3-17.5,69.4,16.8c1.9,59.5-66.6,154-80,162.3
			c-19.3,12-169.2,33.1-183,30.9c-13.8-2.2-39.7-36.7-24.3-48.3S489.2,715.3,506.8,711.1z"/>
		<path class="st17" d="M373.8,753.4c-12,3.5-55.7-10.1-66.9-7.5c-11.1,2.5-38.1,15.2-39,22.1s34.4-3,40.1-2.7
			c5.8,0.4,38.8,16,40.5,25.2s-25.9,20.5-30.2,29.5s8,9,15.8,6.3s27.2-13.2,32.4-13.4c5.2-0.2,24.8-4.1,24.8-4.1L373.8,753.4z"/>
	</g>
	<g>
		<path class="st42" d="M313.6,748.7c-8.5-2.2-30.8-5.3-35.8-4.5c-9.4,1.5-27.6,14-24.2,19.5s20.4-3.7,26-3.3
			c5.5,0.3,31.7,4.8,31.7,4.8L313.6,748.7z"/>
		<path class="st42" d="M506.8,711.1c11.5-2.8,43.5-83.8,66.8-112.9c23.3-29.1,68.3-17.5,69.4,16.8c1.9,59.5-66.6,154-80,162.3
			c-19.3,12-169.2,33.1-183,30.9c-13.8-2.2-39.7-36.7-24.3-48.3S489.2,715.3,506.8,711.1z"/>
		<path class="st42" d="M373.8,753.4c-12,3.5-55.7-10.1-66.9-7.5c-11.1,2.5-38.1,15.2-39,22.1s34.4-3,40.1-2.7
			c5.8,0.4,38.8,16,40.5,25.2s-25.9,20.5-30.2,29.5s8,9,15.8,6.3s27.2-13.2,32.4-13.4c5.2-0.2,24.8-4.1,24.8-4.1L373.8,753.4z"/>
	</g>
	
		<linearGradient id="SVGID_14_" gradientUnits="userSpaceOnUse" x1="533.1126" y1="-3971.9595" x2="677.2059" y2="-3971.9595" gradientTransform="matrix(1 0 0 -1 0 -3381.2134)">
		<stop  offset="0" style="stop-color:#209395"/>
		<stop  offset="0.5348" style="stop-color:#1E8D8F"/>
		<stop  offset="1" style="stop-color:#1B8687"/>
	</linearGradient>
	<path class="st43" d="M627.1,502.2c-28.6,11.6-53.6,47.5-67.2,73.6c-13.6,26-28.5,64.5-26.7,68.5c1.8,4.1,40.1,38.8,104,39.1
		c11.1,0,36.4-85,39.2-113.9C679.3,540.6,676.7,482,627.1,502.2z"/>
	
		<linearGradient id="SVGID_15_" gradientUnits="userSpaceOnUse" x1="521.8099" y1="-4043.2463" x2="650.6805" y2="-4043.2463" gradientTransform="matrix(1 0 0 -1 0 -3381.2134)">
		<stop  offset="0" style="stop-color:#00C0BF"/>
		<stop  offset="1" style="stop-color:#00C1C0"/>
	</linearGradient>
	<path class="st44" d="M523.6,646.3c28.5,33.6,78.3,46.1,120.4,44.1c9.2-0.5,8.8-14.8-0.5-14.3c-38.7,1.9-83.9-9.3-110.1-40.2
		C527.5,628.8,517.7,639.3,523.6,646.3L523.6,646.3z"/>
	<linearGradient id="SVGID_16_" gradientUnits="userSpaceOnUse" x1="558.2695" y1="670.8173" x2="866.1995" y2="670.8173">
		<stop  offset="0" style="stop-color:#00C4C4"/>
		<stop  offset="1" style="stop-color:#009798"/>
	</linearGradient>
	<path class="st45" d="M710.9,473.7c-22,0-86.4,27.3-105.8,74.1c-19.4,46.8-44.7,287-46.8,293.2c-2,6.1,99.9,26.9,165.4,26.9
		s136.5-15.2,141.9-22.7c5.5-7.5-30.8-232.2-32-250.4C832.4,576.7,816,473.7,710.9,473.7z"/>
	
		<linearGradient id="SVGID_17_" gradientUnits="userSpaceOnUse" x1="651.8793" y1="-3886.6147" x2="759.7343" y2="-3886.6147" gradientTransform="matrix(1 0 0 -1 0 -3381.2134)">
		<stop  offset="0" style="stop-color:#00C0BF"/>
		<stop  offset="1" style="stop-color:#00C1C0"/>
	</linearGradient>
	<path class="st46" d="M682.5,476c-1-3.7-7.5-5.8-12.2,0s-31.4,53.1-10.6,65.4c20.8,12.3,59.2-4.6,81.4-34.5
		c17.5-23.5,18.1-31.6,18.6-36.8c0.5-5.2-10.7-7.1-14.1-0.6C743,474.4,682.5,476,682.5,476z"/>
	<g>
		
			<linearGradient id="SVGID_18_" gradientUnits="userSpaceOnUse" x1="567.9199" y1="-4054.3132" x2="595.732" y2="-4054.3132" gradientTransform="matrix(1 0 0 -1 0 -3381.2134)">
			<stop  offset="0" style="stop-color:#00C0BF"/>
			<stop  offset="1" style="stop-color:#00C1C0"/>
		</linearGradient>
		<path class="st47" d="M592.3,597.2c-7.2,25.2-11.4,51.4-15.6,77.2c-3.9,24.4-8.5,49.7-8.8,74.5c0,1.6,2.6,2.1,2.9,0.4
			c4.5-25.1,6.3-50.7,10.4-75.8c4.1-25.3,10-50.1,14.5-75.3C596.1,595.9,593,595,592.3,597.2z"/>
		
			<linearGradient id="SVGID_19_" gradientUnits="userSpaceOnUse" x1="594.2892" y1="-3968.9749" x2="598.541" y2="-3968.9749" gradientTransform="matrix(1 0 0 -1 0 -3381.2134)">
			<stop  offset="0" style="stop-color:#00C0BF"/>
			<stop  offset="1" style="stop-color:#00C1C0"/>
		</linearGradient>
		<path class="st48" d="M596.1,585.7c-1.1-0.1-2,0.8-1.8,1.8c-0.3,1.7,2.2,3.3,3.6,1.8C599.4,587.8,597.9,585.4,596.1,585.7z"/>
	</g>
	<g>
		<path class="st42" d="M676.2,731.2c13.8-2.9,52.6-122.6,81.6-156.5c29-33.9,82.3-18.2,82.3,22.7c0,71.2-83,205.5-99.4,215
			c-23.6,13.6-206.2,8.9-222.5,5.8c-16.4-3.2-46-45.4-27.1-58.6C510.1,746.3,655.1,735.6,676.2,731.2z"/>
		<path class="st42" d="M507.1,753.9c-31,2.1-56.3,2.8-73.6,8.1s-63.7,31.3-65.5,37.5c-1.8,6.1,13.7,1.4,13.7,1.4
			s-14.4,11.2-11.5,16.8s35.7-9.2,35.7-9.2s-19.5,14.8-15.1,20.9c4.3,6.1,25.6-4.7,25.6-4.7s-7.7,6.5-3.3,10.8s41.9-17.3,56-17.8
			c14.1-0.5,26.1,6.3,47.5,0L507.1,753.9z"/>
	</g>
	<path class="st49" d="M757.9,481.1c17.4,4.9,81.8,32.5,97,70.9s-14.5,139.5-18.8,142.2c-4.3,2.8-78.3,0.8-126.9-38.7
		C698.8,647.1,757.9,481.1,757.9,481.1z"/>
	<g>
		
			<linearGradient id="SVGID_20_" gradientUnits="userSpaceOnUse" x1="706.0533" y1="-4010.6646" x2="718.9535" y2="-4010.6646" gradientTransform="matrix(1 0 0 -1 0 -3381.2134)">
			<stop  offset="0" style="stop-color:#00C0BF"/>
			<stop  offset="1" style="stop-color:#00C1C0"/>
		</linearGradient>
		<path class="st50" d="M716.2,604c-4.7,16.5-8.5,33.4-10.2,50.5c-0.2,1.7,2.6,2,2.9,0.4c3.2-16.8,6.1-33.5,9.9-50.1
			C719.3,603,716.7,602.2,716.2,604z"/>
		
			<linearGradient id="SVGID_21_" gradientUnits="userSpaceOnUse" x1="717.1161" y1="-3979.4128" x2="721.3798" y2="-3979.4128" gradientTransform="matrix(1 0 0 -1 0 -3381.2134)">
			<stop  offset="0" style="stop-color:#00C0BF"/>
			<stop  offset="1" style="stop-color:#00C1C0"/>
		</linearGradient>
		<path class="st51" d="M720.8,596.6c-0.9-0.9-2.5-0.7-3.2,0.4c-0.1,0.1-0.1,0.2-0.2,0.3c-1,1.6,1,3.7,2.7,2.7
			c0.1-0.1,0.2-0.1,0.3-0.2C721.5,599.1,721.7,597.6,720.8,596.6z"/>
	</g>
	
		<linearGradient id="SVGID_22_" gradientUnits="userSpaceOnUse" x1="697.0505" y1="-4053.8054" x2="842.93" y2="-4053.8054" gradientTransform="matrix(1 0 0 -1 0 -3381.2134)">
		<stop  offset="0" style="stop-color:#00C0BF"/>
		<stop  offset="1" style="stop-color:#00C1C0"/>
	</linearGradient>
	<path class="st52" d="M699,655.6c33.2,36.9,89.7,49.7,137.1,45.8c9.1-0.7,9.2-15.1,0-14.3c-43.8,3.5-96.1-7.4-127-41.6
		C702.9,638.6,692.8,648.7,699,655.6L699,655.6z"/>
	<path class="st42" d="M744.9,409.2c-0.1,1.9-0.1,3.7,0,5.1c0,0.2,0,0.4,0,0.5c1.1,17.6,2.1,53.2,0,58.5
		c-14.8,37.1-58.8,63.6-73.3,56.5s7.7-37.8,10.1-47c0.3-1.2,0.5-2.6,0.7-4.3c1.2-11-0.7-30.3-0.7-30.3s-32.8,18.7-61,0
		c-16.8-11.1-20.8-54.6-18.1-92.4c0.2-2.3,0.3-4.5,0.6-6.7c0.6-6.8,1.5-13.3,2.6-19.4c2.4-14.1,5.8-25.5,9.7-31.1
		c30.3-43.4,119.5-14,130.5,14.1c5.7,14.6,5.1,35.9,3.2,55.6C747.8,384.5,745.4,399.5,744.9,409.2z"/>
	<path d="M730.5,383c-4.5,10.8-14.5,0.8-17-28.7c-0.2-2.9-27.9,4.6-36-28.7c0,0-26.7,20.8-44-11c0,0-14.9,18.6-33.2,14.9
		c-23.7-4.7-28.8-50.4-4.5-70.8c25.6-21.6,50.7,2.7,50.7,2.7s22.8-14.2,49.3-6c27.6,8.6,33.7,36.8,33.7,36.8s22,3,36.9,22.8
		c14.9,19.8-14.4,93.9-21,94.2C738.7,409.5,730.5,383,730.5,383z"/>
	<path d="M615.1,376.7c0.2,2.9-1.5,5.3-3.7,5.4c-2.2,0.1-4.1-2.1-4.3-4.9c-0.2-2.9,1.5-5.3,3.7-5.4
		C613,371.7,614.9,373.9,615.1,376.7z"/>
	<path d="M664.2,379c0.2,2.9-1.5,5.3-3.7,5.4c-2.2,0.1-4.1-2.1-4.3-4.9c-0.2-2.9,1.5-5.3,3.7-5.4C662.1,374,664,376.2,664.2,379z"/>
	<path d="M620.5,351.9c0.2,2.7-4.3,5.2-9.8,5.5c-5.6,0.3-10.3-1.6-10.4-4.4s4.3-5.2,9.8-5.5C615.7,347.2,620.4,349.1,620.5,351.9z"
		/>
	<path d="M672.6,357.9c-0.7,2.6-5.6,3.7-11.1,2.3s-9.3-4.7-8.6-7.3s5.6-3.7,11.1-2.3S673.2,355.3,672.6,357.9z"/>
	<path class="st53" d="M632.7,393.4c-1.5,0.8-5.3,2.9-6.9,1.1c-2-2.2,2.6-32.2,3.5-39.5c0.1-0.8-1-1-1.2-0.3
		c-3.2,11.5-8.9,42.5-3.3,43.3c3.2,0.4,6.9-1.2,9-3C634.8,394.2,633.8,392.7,632.7,393.4z"/>
	<path class="st3" d="M662.1,414.2c-3.1,4-8.5,5.3-13.5,5.4c-4.6,0.1-10.8-1.2-12.9-5.8c-0.2-0.4-0.3-0.8-0.4-1.3
		c0-0.1-0.1-0.3-0.1-0.4c-0.5-2.9,0.7-6,4-6.8c3-0.7,5.5,0.4,8.5,0.2c2.3-0.1,4-1.1,5.9-2.5c4.3-3,9.1-0.7,10.4,3.4
		c0.1,0.2,0.1,0.4,0.2,0.5C664.5,409.1,664,411.7,662.1,414.2z"/>
	<g>
		<path class="st49" d="M648.8,412.6c-4.5,0.7-9.1,0.9-13.5-0.1c0-0.1-0.1-0.3-0.1-0.4c4.6,0.6,9,0.9,13.6,0.4
			C648.9,412.4,648.9,412.6,648.8,412.6z"/>
		<path class="st49" d="M664,407c-2.2,1.8-4.7,3.1-7.5,3.9c-0.1,0-0.2-0.1-0.1-0.2c2.7-1,5.2-2.4,7.4-4.3
			C663.9,406.6,664,406.8,664,407z"/>
	</g>
	<path class="st42" d="M729.4,385.2c2.7-6,8.6-17.5,22.8-16.6c14.4,0.8,21.2,15.8,18.3,28.6s-18.3,25.3-37.8,11.9L729.4,385.2z"/>
	<path class="st53" d="M759.2,392.8c-4.5-2.5-11.9-0.6-15.8,3.5c2-5.9,5-10.8,10.1-15c0.5-0.4-0.2-1.1-0.7-0.9
		c-7.4,4-13,12.4-12.1,21c0,0.2,0.1,0.3,0.2,0.4c0.1,0.2,0.4,0.3,0.6,0.1c0.2-0.1,0.3-0.2,0.3-0.4c0,0,0,0,0-0.1
		c3.6-5.2,10.5-9,16.9-7.8C759.4,393.8,759.7,393.1,759.2,392.8z"/>
	<g class="st54">
		
			<image style="overflow:visible;enable-background:new    ;" width="404" height="496" xlink:href="14F7AFC4.png"  transform="matrix(0.2382 0 0 0.2382 645.7369 396.2822)">
		</image>
	</g>
	<polygon class="st55" points="578.2,833.3 320,833.3 320,815.1 578.2,822.5 	"/>
	<path class="st56" d="M436.5,735H107.1c-16,0-29.6-11.5-32.2-27.3L36.1,474.5c-3.3-19.9,12-38,32.2-38h329.4
		c16,0,29.6,11.5,32.2,27.3L468.7,697C472,716.9,456.6,735,436.5,735z"/>
	<path class="st57" d="M415.1,735H85.7c-16,0-29.6-11.5-32.2-27.3L14.7,474.5c-3.3-19.9,12-38,32.2-38h329.4
		c16,0,29.6,11.5,32.2,27.3L447.3,697C450.6,716.9,435.2,735,415.1,735z"/>
	<rect x="96.1" y="821.8" class="st58" width="272" height="11.6"/>
	<polygon class="st58" points="282.3,821.8 149.7,821.8 174.5,631.7 307.1,631.7 	"/>
	<polygon class="st59" points="264.6,821.8 132,821.8 156.8,631.7 289.4,631.7 	"/>
	<g>
		<path class="st60" d="M158.3,600.7L158.3,600.7c-2.9,0-5.5-2.1-6-5l-8.4-50.3c-0.6-3.7,2.2-7,6-7l0,0c2.9,0,5.5,2.1,6,5l8.4,50.3
			C164.9,597.4,162,600.7,158.3,600.7z"/>
		<path class="st60" d="M178.8,600.7L178.8,600.7c-2.9,0-5.5-2.1-6-5l-8.4-50.3c-0.6-3.7,2.2-7,6-7l0,0c2.9,0,5.5,2.1,6,5l8.4,50.3
			C185.4,597.4,182.6,600.7,178.8,600.7z"/>
		<path class="st60" d="M199.4,600.7L199.4,600.7c-2.9,0-5.5-2.1-6-5l-8.4-50.3c-0.6-3.7,2.2-7,6-7l0,0c2.9,0,5.5,2.1,6,5l8.4,50.3
			C205.9,597.4,203.1,600.7,199.4,600.7z"/>
		<path class="st60" d="M219.9,600.7L219.9,600.7c-2.9,0-5.5-2.1-6-5l-8.4-50.3c-0.6-3.7,2.2-7,6-7l0,0c2.9,0,5.5,2.1,6,5l8.4,50.3
			C226.5,597.4,223.6,600.7,219.9,600.7z"/>
		<path class="st60" d="M240.4,600.7L240.4,600.7c-2.9,0-5.5-2.1-6-5l-8.4-50.3c-0.6-3.7,2.2-7,6-7l0,0c2.9,0,5.5,2.1,6,5l8.4,50.3
			C247,597.4,244.2,600.7,240.4,600.7z"/>
		<path class="st60" d="M261,600.7L261,600.7c-3,0-5.5-2.1-6-5l-8.4-50.3c-0.6-3.7,2.2-7,6-7l0,0c2.9,0,5.5,2.1,6,5l8.4,50.3
			C267.6,597.4,264.7,600.7,261,600.7z"/>
		<path class="st60" d="M281.5,600.7L281.5,600.7c-3,0-5.5-2.1-6-5l-8.4-50.3c-0.6-3.7,2.2-7,6-7l0,0c3,0,5.5,2.1,6,5l8.4,50.3
			C288.1,597.4,285.3,600.7,281.5,600.7z"/>
		<path class="st60" d="M302,600.7L302,600.7c-3,0-5.5-2.1-6-5l-8.4-50.3c-0.6-3.7,2.2-7,6-7l0,0c3,0,5.5,2.1,6,5l8.4,50.3
			C308.6,597.4,305.8,600.7,302,600.7z"/>
	</g>
	<rect x="14.3" y="833.3" class="st61" width="957.9" height="34.5"/>
	<rect x="635.8" y="725.9" class="st17" width="270.4" height="53.6"/>
	<rect x="635.8" y="725.9" class="st62" width="220.2" height="53.6"/>
	<g>
		<rect x="692.9" y="743.6" class="st17" width="133.5" height="18.2"/>
		<path class="st17" d="M653.5,752.7c0-5.9,4.8-10.6,10.6-10.6s10.6,4.8,10.6,10.6s-4.8,10.6-10.6,10.6S653.5,758.6,653.5,752.7z"/>
	</g>
	<rect x="664.2" y="779.5" class="st63" width="270.4" height="53.6"/>
	<rect x="714.3" y="779.5" class="st62" width="220.2" height="53.6"/>
	<g>
		<rect x="744" y="797.2" class="st64" width="133.5" height="18.2"/>
		<path class="st64" d="M916.8,806.3c0,5.9-4.8,10.6-10.6,10.6s-10.6-4.8-10.6-10.6s4.8-10.6,10.6-10.6
			C912,795.7,916.8,800.4,916.8,806.3z"/>
	</g>
	<g id="BACKGROUND_1_">
		<path class="st37" d="M744.4,42.1c0.1,0.2,0.2,0.5,0.3,0.8c1.2,2.9,0.9,5.6-1.1,8c-0.8,1-1.8,1.8-2.7,2.6c-1.5,1.3-3,2.6-4.5,4
			c-1.3,1.1-1.8,2.6-1.4,4.3c0.4,1.7,0.9,3.4,1.4,5.2c0.2,0.6,0.4,1.2,0.5,1.8c0,0.1-0.1,0.2-0.2,0.3c-0.1,0-0.2,0.1-0.3,0.1
			c-2.3-1.4-3.8-3.6-4.8-6c-1-2.2-0.6-4.4,0.8-6.3c1.2-1.5,2.6-2.8,4-4c1.1-1,2.3-1.8,3.6-2.6c2.3-1.6,3.6-3.8,3.7-6.6
			c0-0.3,0.1-0.6,0.1-0.9C743.9,42.4,744,42.4,744.4,42.1z"/>
		<path class="st37" d="M722.8,88.3c0.8,0.3,1.5,0.7,2.3,0.8c2.2,0.3,4.4,0.6,6.6,0.7c6.3,0.3,12.6,0.2,18.9-1.1
			c1.7-0.3,3.5-0.6,5.3-2.2c-0.1,1,0,1.5-0.2,1.7c-0.7,0.6-1.5,1.1-2.4,1.5c-2.4,1.1-5.1,1.4-7.7,1.7c-4.4,0.5-8.8,0.9-13.2,0.6
			c-2.7-0.1-5.5-0.3-8.2-0.6c-1.5-0.2-3.1-0.4-4.5-1.4c-1.1-0.8-1-2.2,0.2-2.8c1.9-0.8,4-1,6.2-1.1
			C725.3,87.4,723.4,86.6,722.8,88.3z"/>
		<path class="st37" d="M731.1,70.8c-1,0.4-2,0.8-3,1.2c0,0.9,0.5,1,1,1.1c0.8,0.1,1.7,0.2,2.5,0.2c4.7,0.1,9.5,0.2,14.2-0.6
			c0.9-0.2,1.8-0.2,2.8-0.3c-0.1,0.9-0.7,1-1.1,1.2c-2.4,1.1-5,1.8-7.6,1.9c-3.6,0.2-7.1,0.2-10.7,0.1c-1.4-0.1-2.9-0.5-4.3-0.9
			c-0.5-0.1-0.9-0.5-1.3-0.8c-0.6-0.5-0.5-1.5,0.1-1.9c0.7-0.4,1.5-0.9,2.3-1c1.6-0.3,3.3-0.4,5-0.6C731,70.5,731,70.7,731.1,70.8z"
			/>
		<path class="st37" d="M748.2,53.3c-1,0.9-2,1.8-3,2.7c-0.7,0.6-1.4,1.3-2,2c-1.2,1.3-1.4,2.8-0.4,4.3c0.5,0.7,0.9,1.4,1.3,2.2
			c0.9,1.8,0.7,3.5-0.5,5c-0.3,0.4-0.7,0.8-1,1.2c-0.3,0.3-0.7,0.5-1,0.7c0-1.3,0.2-2.4-0.1-3.5c-0.3-1-1.2-1.7-1.7-2.7
			c-0.5-1-0.9-2.1-1.2-3.2c-0.4-1.9,0.3-3.5,1.7-4.8C742.5,55.3,745,53.9,748.2,53.3z"/>
		<path class="st37" d="M746.6,85.1c-2.5,1.4-5.1,1.5-7.5,1.8c-2.5,0.3-5-0.2-7.5-0.7c-0.8-0.2-1.6-0.5-2.3-1
			c-1.1-0.7-1-1.7,0.1-2.5c0.3-0.2,0.6-0.2,0.9-0.3c2.9,1.5,5.9,1.8,9.1,1.4c1.3-0.2,2.5-0.3,3.8-0.4
			C744.6,83.3,744.6,83.3,746.6,85.1z"/>
		<path class="st37" d="M747.4,79c-0.4,0.2-0.6,0.4-0.9,0.5c-4.8,1.2-9.8,1.8-14.7,1.2c-1.3-0.2-2.6-0.7-3.9-1.1
			c-0.7-0.3-1-1-0.8-1.5c0.3-0.6,1.5-1.3,1.8-0.8c1.1,1.1,2.4,1.2,3.8,1.3c3.2,0.1,6.3,0.2,9.5-0.4c0.9-0.2,1.9-0.3,2.8-0.4
			C746,77.6,746.7,78.2,747.4,79z"/>
		<path class="st37" d="M757.9,90.1c-0.4,0.5-0.7,1-1.1,1.4c-1.2,1.1-2.7,1.6-4.3,1.9c-6.1,1.2-12.3,1.6-18.5,0.8
			c-2.1-0.3-4.2-0.5-6.3-0.8c0.6-0.7,1.3-0.4,1.9-0.4c4.7,0,9.5,0,14.2,0C748.6,93,753.3,92.3,757.9,90.1z"/>
		<path class="st37" d="M750.4,80c1.2-1.1,1.9-1.7,2.5-2.4c0.6-0.6,1.3-1.1,1.8-1.8c1.5-1.9,1.1-3.3-1-4.3c-0.6-0.3-1.3-0.5-2.3-0.8
			c1.3-1,2.5-1.3,3.7-1c0.9,0.2,1.8,0.7,2.4,1.3c1.3,1.4,1.7,4-0.3,6C755.8,78.5,753.7,79.5,750.4,80z"/>
		<g>
			<path class="st37" d="M112.8,117.5c-1-1.8-1.9-3.1-2.6-4.6c-2.6-5.3,0.7-8.8,5.1-8.9c1.8,0,3.5,0,5.3,0c0.6-1,1-1.8,1.5-2.6
				c0.5-0.8,0.9-1.7,1.5-2.5c3.1-4,7-4,10,0.2c1,1.4,1.8,3.1,2.9,4.9c1,0,2.1,0,3.2,0c1.3,0.1,2.6,0,3.9,0.3
				c3.3,0.7,4.9,3.2,4.2,6.5c-0.2,1.1-0.7,2.1-1.3,3.1c-0.6,1.1-1.3,2.2-2.1,3.4c0.5,0.9,1,1.7,1.5,2.5c0.6,1,1.2,1.9,1.7,3
				c1.9,4.7-0.2,8.1-5.2,8.5c-1.9,0.1-3.9,0-5.8,0c-0.6,1.2-1.1,2.2-1.7,3.1c-0.7,1.1-1.4,2.2-2.3,3.1c-2.5,2.5-5.7,2.5-8.1-0.1
				c-1.1-1.2-1.8-2.7-2.7-4c-0.4-0.7-0.9-1.3-1.3-2.1c-1.6,0-3,0.1-4.4,0c-1.1-0.1-2.3-0.1-3.4-0.4c-2.7-0.8-4-2.7-3.7-5.5
				c0.2-1.4,0.7-2.8,1.3-4.1C111,120.1,111.9,118.9,112.8,117.5z M136.2,117.8c-0.2-1.7,0.3-3.7-1.3-4.9c-1.9-1.5-3.9-3.2-6.4-3.1
				c-2.5,0.1-4.5,1.7-6.3,3.3c-1.3,1.2-0.9,3-0.9,4.6c0,1.6-0.5,3.5,1,4.5c2,1.4,4.2,2.3,6.3,3.4c2.1-1.1,4.4-2.1,6.3-3.4
				C136.4,121.3,136,119.4,136.2,117.8z M137.4,128.5c2.4,1.5,4.6,1.1,6.7,0.3c1.7-0.7,2.4-2.1,1.9-3.9c-0.6-2-1.5-3.9-3.4-5.1
				C138.7,121.3,137.3,124.2,137.4,128.5z M123.4,131.1c0.7,2.3,1.5,4.2,3.3,5.5c1.2,0.9,2.5,1.1,3.6,0.2c1.9-1.5,3.3-3.4,3.4-6
				C130.1,128.3,126.9,128.2,123.4,131.1z M114.6,119.7c-1.9,1.5-2.8,3.4-3.4,5.4c-0.5,1.6,0.2,2.9,1.6,3.6c2.3,1,4.6,1.2,6.8-0.1
				C120.2,124.3,118.5,121.6,114.6,119.7z M123.5,104.4c3.7,2.6,6.8,2.6,10.1,0c-0.2-2.1-1.2-3.7-2.6-5c-1.5-1.5-3.2-1.5-4.7-0.1
				C124.9,100.6,124,102.3,123.5,104.4z M142.7,115.3c2.1-2.2,4.2-4.5,2.5-7.4c-1.5-2.6-4.4-2.1-7-1.5c-0.3,0.1-0.4,0.4-0.8,0.8
				C137,111,138.7,113.6,142.7,115.3z M119.6,106.7c-1.9-1-3.8-0.9-5.7-0.3c-2,0.6-2.8,2.1-2.3,4.1c0.4,1.9,1.3,3.6,3.2,4.7
				C118.5,113.5,120.4,110.9,119.6,106.7z M124.9,126.9c-0.9-0.5-1.6-0.8-2.2-1.1c-0.1,0-0.6,0.9-0.5,1c0.3,0.4,0.8,0.8,1.3,1
				C123.8,127.9,124.2,127.4,124.9,126.9z M125.3,108.3c-0.9-0.5-1.3-0.8-1.7-0.9c-0.8-0.2-1.2,0.3-1.3,0.9c0,0.3,0.5,0.9,0.7,0.9
				C123.5,109.3,124,108.9,125.3,108.3z M135.1,127.1c-0.2-0.6-0.2-1-0.4-1.1c-0.6-0.4-1.7,0.1-1.8,0.9c0,0.3,0.5,0.9,0.7,0.8
				C134.2,127.7,134.7,127.3,135.1,127.1z M118.4,116.4c-0.3,0.1-0.4,0.1-0.6,0.1c-0.6,0.3-1.1,0.7-0.7,1.4c0.2,0.3,0.7,0.5,1.1,0.7
				c0.2-0.4,0.6-0.7,0.6-1.1C118.8,117.2,118.5,116.8,118.4,116.4z M133.7,106.6c-0.4,0.8-0.9,1.3-0.8,1.6c0.2,0.5,0.7,0.9,1.2,1.1
				c0.1,0.1,0.9-0.5,0.9-0.7C134.8,108.2,134.4,107.7,133.7,106.6z M138.8,116.1c-0.2,0.8-0.4,1.3-0.4,1.7c0.1,0.3,0.5,0.9,0.8,0.9
				c0.7,0,1.2-0.6,1-1.2C140,116.9,139.4,116.6,138.8,116.1z"/>
			<path class="st37" d="M128.5,114.2c2-0.1,3.7,1.5,3.8,3.6c0.1,2-1.6,3.7-3.6,3.8c-2,0.1-3.7-1.6-3.8-3.6
				C124.9,116,126.5,114.2,128.5,114.2z"/>
		</g>
		<text transform="matrix(1 0 0 1 78.5477 159.1136)" class="st37 st65 st66">React Native</text>
		<text transform="matrix(1 0 0 1 718.8694 108.4984)" class="st37 st65 st67">Java</text>
	</g>
</g>
<g id="DESIGNED_BY_FREEPIK_1_">
</g>
</svg>
